<svg width="40" height="40" viewBox="0 0 40 40" fill="none" xmlns="http://www.w3.org/2000/svg">
<rect width="40" height="40" rx="8" fill="white" fill-opacity="0.05"/>
<g clip-path="url(#clip0_19357_3770)">
<path d="M26.25 16.6667C27.4006 16.6667 28.3333 15.7339 28.3333 14.5833C28.3333 13.4327 27.4006 12.5 26.25 12.5C25.0994 12.5 24.1666 13.4327 24.1666 14.5833C24.1666 15.7339 25.0994 16.6667 26.25 16.6667Z" fill="white"/>
<path d="M26.25 16.6667C27.4006 16.6667 28.3333 15.7339 28.3333 14.5833C28.3333 13.4327 27.4006 12.5 26.25 12.5C25.0994 12.5 24.1666 13.4327 24.1666 14.5833C24.1666 15.7339 25.0994 16.6667 26.25 16.6667Z" fill="white"/>
<path d="M27.2666 17.7587C26.6833 17.942 26.0416 17.9753 25.375 17.8087C24.2583 17.517 23.35 16.6253 23.0416 15.5087C22.8916 14.967 22.8833 14.4337 22.975 13.9503C23.0833 13.417 22.7083 12.917 22.175 12.917H15.8333C13.3333 12.917 11.6666 14.167 11.6666 17.0837V22.917C11.6666 25.8337 13.3333 27.0837 15.8333 27.0837H24.1666C26.6666 27.0837 28.3333 25.8337 28.3333 22.917V18.5503C28.3333 18.0003 27.8 17.5837 27.2666 17.7587ZM22.9333 19.292L21.95 20.0753C21.4 20.517 20.7 20.7337 20 20.7337C19.3 20.7337 18.5916 20.517 18.05 20.0753L15.4416 17.992C15.175 17.7753 15.1333 17.3753 15.3416 17.1087C15.5583 16.842 15.95 16.792 16.2166 17.0087L18.825 19.092C19.4583 19.6003 20.5333 19.6003 21.1666 19.092L22.15 18.3087C22.4166 18.092 22.8166 18.1337 23.025 18.4087C23.2416 18.6753 23.2 19.0753 22.9333 19.292Z" fill="white"/>
</g>
<defs>
<clipPath id="clip0_19357_3770">
<rect width="20" height="20" fill="white" transform="translate(10 10)"/>
</clipPath>
</defs>
</svg>
