<svg width="40" height="40" viewBox="0 0 40 40" fill="none" xmlns="http://www.w3.org/2000/svg">
<rect width="40" height="40" rx="8" fill="white"/>
<path d="M16.0012 20C16.0012 17.791 17.7915 15.9997 20.0005 15.9997C22.2096 15.9997 24.0009 17.791 24.0009 20C24.0009 22.209 22.2096 24.0003 20.0005 24.0003C17.7915 24.0003 16.0012 22.209 16.0012 20ZM13.8387 20C13.8387 23.4032 16.5973 26.1619 20.0005 26.1619C23.4038 26.1619 26.1624 23.4032 26.1624 20C26.1624 16.5968 23.4038 13.8381 20.0005 13.8381C16.5973 13.8381 13.8387 16.5968 13.8387 20ZM24.9663 13.5939C24.9663 14.3887 25.6109 15.0342 26.4067 15.0342C27.2015 15.0342 27.8471 14.3887 27.8471 13.5939C27.8471 12.799 27.2025 12.1544 26.4067 12.1544C25.6109 12.1544 24.9663 12.799 24.9663 13.5939ZM15.1521 29.7677C13.9821 29.7144 13.3463 29.5195 12.9237 29.3548C12.3634 29.1367 11.964 28.8769 11.5434 28.4572C11.1237 28.0375 10.8629 27.6381 10.6458 27.0779C10.481 26.6553 10.2862 26.0194 10.2329 24.8494C10.1747 23.5845 10.1631 23.2045 10.1631 20C10.1631 16.7955 10.1757 16.4165 10.2329 15.1506C10.2862 13.9806 10.482 13.3457 10.6458 12.9221C10.8639 12.3619 11.1237 11.9625 11.5434 11.5418C11.9631 11.1221 12.3624 10.8614 12.9237 10.6443C13.3463 10.4795 13.9821 10.2847 15.1521 10.2313C16.417 10.1732 16.797 10.1616 20.0005 10.1616C23.2051 10.1616 23.5841 10.1742 24.85 10.2313C26.0199 10.2847 26.6548 10.4805 27.0784 10.6443C27.6387 10.8614 28.038 11.1221 28.4587 11.5418C28.8784 11.9616 29.1382 12.3619 29.3563 12.9221C29.5211 13.3447 29.7159 13.9806 29.7692 15.1506C29.8274 16.4165 29.839 16.7955 29.839 20C29.839 23.2036 29.8274 23.5835 29.7692 24.8494C29.7159 26.0194 29.5201 26.6553 29.3563 27.0779C29.1382 27.6381 28.8784 28.0375 28.4587 28.4572C28.039 28.8769 27.6387 29.1367 27.0784 29.3548C26.6558 29.5195 26.0199 29.7144 24.85 29.7677C23.585 29.8258 23.2051 29.8375 20.0005 29.8375C16.797 29.8375 16.417 29.8258 15.1521 29.7677ZM15.0532 8.0727C13.7757 8.13086 12.9033 8.33344 12.1405 8.63005C11.3514 8.93635 10.6826 9.34733 10.0148 10.0142C9.34788 10.6811 8.9369 11.3499 8.6306 12.1399C8.33399 12.9027 8.13141 13.7751 8.07325 15.0527C8.01412 16.3321 8.00055 16.7412 8.00055 20C8.00055 23.2588 8.01412 23.6679 8.07325 24.9473C8.13141 26.2249 8.33399 27.0973 8.6306 27.8601C8.9369 28.6491 9.34691 29.3189 10.0148 29.9858C10.6816 30.6527 11.3505 31.0627 12.1405 31.37C12.9043 31.6666 13.7757 31.8691 15.0532 31.9273C16.3337 31.9855 16.7417 32 20.0005 32C23.2603 32 23.6684 31.9864 24.9479 31.9273C26.2254 31.8691 27.0978 31.6666 27.8606 31.37C28.6497 31.0627 29.3185 30.6527 29.9863 29.9858C30.6532 29.3189 31.0632 28.6491 31.3705 27.8601C31.6671 27.0973 31.8707 26.2249 31.9279 24.9473C31.986 23.6669 31.9996 23.2588 31.9996 20C31.9996 16.7412 31.986 16.3321 31.9279 15.0527C31.8697 13.7751 31.6671 12.9027 31.3705 12.1399C31.0632 11.3509 30.6532 10.6821 29.9863 10.0142C29.3195 9.34733 28.6497 8.93635 27.8616 8.63005C27.0978 8.33344 26.2254 8.12989 24.9489 8.0727C23.6694 8.01454 23.2603 8 20.0015 8C16.7417 8 16.3337 8.01357 15.0532 8.0727Z" fill="#101323"/>
</svg>
