<svg width="40" height="40" viewBox="0 0 40 40" fill="none" xmlns="http://www.w3.org/2000/svg">
<rect width="40" height="40" rx="8" fill="white"/>
<g clip-path="url(#clip0_19357_3797)">
<path d="M7.44238 10.7879C7.44238 9.97978 7.72522 9.31311 8.29087 8.78788C8.85651 8.26262 9.59188 8 10.4969 8C11.3858 8 12.105 8.25857 12.6545 8.77576C13.2201 9.30909 13.503 10.004 13.503 10.8606C13.503 11.6364 13.2282 12.2828 12.6787 12.8C12.1131 13.3333 11.3696 13.6 10.4484 13.6H10.4242C9.5353 13.6 8.81613 13.3333 8.26662 12.8C7.71712 12.2667 7.44238 11.5959 7.44238 10.7879ZM7.75753 32V15.806H13.1393V32H7.75753ZM16.1212 32H21.503V22.9576C21.503 22.3919 21.5676 21.9555 21.6969 21.6485C21.9232 21.099 22.2666 20.6343 22.7272 20.2545C23.1878 19.8747 23.7656 19.6848 24.4605 19.6848C26.2706 19.6848 27.1757 20.905 27.1757 23.3454V32H32.5575V22.7151C32.5575 20.3232 31.9918 18.5091 30.8605 17.2727C29.7292 16.0364 28.2343 15.4182 26.3757 15.4182C24.2908 15.4182 22.6666 16.3151 21.503 18.1091V18.1576H21.4787L21.503 18.1091V15.806H16.1212C16.1535 16.3232 16.1696 17.9313 16.1696 20.6303C16.1696 23.3293 16.1535 27.1191 16.1212 32Z" fill="#101323"/>
</g>
<defs>
<clipPath id="clip0_19357_3797">
<rect width="25.1151" height="24" fill="white" transform="translate(7.44238 8)"/>
</clipPath>
</defs>
</svg>
