<svg width="40" height="40" viewBox="0 0 40 40" fill="none" xmlns="http://www.w3.org/2000/svg">
<rect width="40" height="40" rx="8" fill="white" fill-opacity="0.05"/>
<g clip-path="url(#clip0_19357_3780)">
<path d="M27.1834 17.2503C26.3167 13.392 22.95 11.667 20 11.667C20 11.667 20 11.667 19.9917 11.667C17.05 11.667 13.6917 13.392 12.8167 17.242C11.8334 21.542 14.4667 25.1837 16.85 27.4837C17.7334 28.3337 18.8667 28.7587 20 28.7587C21.1334 28.7587 22.2667 28.3337 23.1417 27.4837C25.525 25.1837 28.1584 21.5503 27.1834 17.2503ZM22.7334 17.942L19.4 21.2753C19.275 21.4003 19.1167 21.4587 18.9584 21.4587C18.8 21.4587 18.6417 21.4003 18.5167 21.2753L17.2667 20.0253C17.025 19.7837 17.025 19.3837 17.2667 19.142C17.5084 18.9003 17.9084 18.9003 18.15 19.142L18.9584 19.9503L21.85 17.0587C22.0917 16.817 22.4917 16.817 22.7334 17.0587C22.975 17.3003 22.975 17.7003 22.7334 17.942Z" fill="white"/>
</g>
<defs>
<clipPath id="clip0_19357_3780">
<rect width="20" height="20" fill="white" transform="translate(10 10)"/>
</clipPath>
</defs>
</svg>
