<svg width="40" height="40" viewBox="0 0 40 40" fill="none" xmlns="http://www.w3.org/2000/svg">
<rect width="40" height="40" rx="8" fill="white" fill-opacity="0.05"/>
<g clip-path="url(#clip0_19357_3759)">
<path d="M24.6833 18.9587C24.325 18.9587 24.0416 18.667 24.0416 18.317C24.0416 18.0087 23.7333 17.367 23.2166 16.8087C22.7083 16.267 22.15 15.9503 21.6833 15.9503C21.325 15.9503 21.0416 15.6587 21.0416 15.3087C21.0416 14.9587 21.3333 14.667 21.6833 14.667C22.5166 14.667 23.3916 15.117 24.1583 15.9253C24.875 16.6837 25.3333 17.6253 25.3333 18.3087C25.3333 18.667 25.0416 18.9587 24.6833 18.9587Z" fill="white"/>
<path d="M27.6917 18.9587C27.3334 18.9587 27.05 18.667 27.05 18.317C27.05 15.3587 24.6417 12.9587 21.6917 12.9587C21.3334 12.9587 21.05 12.667 21.05 12.317C21.05 11.967 21.3334 11.667 21.6834 11.667C25.35 11.667 28.3334 14.6503 28.3334 18.317C28.3334 18.667 28.0417 18.9587 27.6917 18.9587Z" fill="white"/>
<path d="M19.2083 22.4587L17.6666 24.0003C17.3416 24.3253 16.825 24.3253 16.4916 24.0087C16.4 23.917 16.3083 23.8337 16.2166 23.742C15.3583 22.8753 14.5833 21.967 13.8916 21.017C13.2083 20.067 12.6583 19.117 12.2583 18.1753C11.8666 17.2253 11.6666 16.317 11.6666 15.4503C11.6666 14.8837 11.7666 14.342 11.9666 13.842C12.1666 13.3337 12.4833 12.867 12.925 12.4503C13.4583 11.9253 14.0416 11.667 14.6583 11.667C14.8916 11.667 15.125 11.717 15.3333 11.817C15.55 11.917 15.7416 12.067 15.8916 12.2837L17.825 15.0087C17.975 15.217 18.0833 15.4087 18.1583 15.592C18.2333 15.767 18.275 15.942 18.275 16.1003C18.275 16.3003 18.2166 16.5003 18.1 16.692C17.9916 16.8837 17.8333 17.0837 17.6333 17.2837L17 17.942C16.9083 18.0337 16.8666 18.142 16.8666 18.2753C16.8666 18.342 16.875 18.4003 16.8916 18.467C16.9166 18.5337 16.9416 18.5837 16.9583 18.6337C17.1083 18.9087 17.3666 19.267 17.7333 19.7003C18.1083 20.1337 18.5083 20.5753 18.9416 21.017C19.025 21.1003 19.1166 21.1837 19.2 21.267C19.5333 21.592 19.5416 22.1253 19.2083 22.4587Z" fill="white"/>
<path d="M28.3083 25.2752C28.3083 25.5085 28.2667 25.7502 28.1833 25.9835C28.1583 26.0502 28.1333 26.1169 28.1 26.1835C27.9583 26.4835 27.775 26.7669 27.5333 27.0335C27.125 27.4835 26.675 27.8085 26.1667 28.0169C26.1583 28.0169 26.15 28.0252 26.1417 28.0252C25.65 28.2252 25.1167 28.3335 24.5417 28.3335C23.6917 28.3335 22.7833 28.1335 21.825 27.7252C20.8667 27.3169 19.9083 26.7669 18.9583 26.0752C18.6333 25.8335 18.3083 25.5919 18 25.3335L20.725 22.6085C20.9583 22.7835 21.1667 22.9169 21.3417 23.0085C21.3833 23.0252 21.4333 23.0502 21.4917 23.0752C21.5583 23.1002 21.625 23.1085 21.7 23.1085C21.8417 23.1085 21.95 23.0585 22.0417 22.9669L22.675 22.3419C22.8833 22.1335 23.0833 21.9752 23.275 21.8752C23.4667 21.7585 23.6583 21.7002 23.8667 21.7002C24.025 21.7002 24.1917 21.7335 24.375 21.8085C24.5583 21.8835 24.75 21.9919 24.9583 22.1335L27.7167 24.0919C27.9333 24.2419 28.0833 24.4169 28.175 24.6252C28.2583 24.8335 28.3083 25.0419 28.3083 25.2752Z" fill="white"/>
</g>
<defs>
<clipPath id="clip0_19357_3759">
<rect width="20" height="20" fill="white" transform="translate(10 10)"/>
</clipPath>
</defs>
</svg>
