<svg width="40" height="40" viewBox="0 0 40 40" fill="none" xmlns="http://www.w3.org/2000/svg">
<path d="M13.9668 20.0001L17.9835 24.0335L26.0335 15.9668" stroke="#06030E" stroke-width="3" stroke-linecap="round" stroke-linejoin="round"/>
<path d="M7.0668 10.3331C7.0668 8.56647 8.5168 7.11647 10.2835 7.11647H13.1668C13.8335 7.11647 14.7668 6.76647 15.2668 6.3498L17.9001 4.0998C19.0668 3.11647 20.9501 3.11647 22.0835 4.0998L24.7168 6.3498C25.2168 6.76647 26.1668 7.11647 26.8335 7.11647H29.6668C31.4335 7.11647 32.8835 8.56647 32.8835 10.3331V13.1665C32.8835 13.8331 33.2335 14.7665 33.6501 15.2665L35.9001 17.8998C36.8835 19.0665 36.8835 20.9498 35.9001 22.0831L33.6501 24.7165C33.2335 25.2165 32.8835 26.1498 32.8835 26.8165V29.6498C32.8835 31.4165 31.4335 32.8665 29.6668 32.8665H26.8335C26.1668 32.8665 25.2335 33.2165 24.7335 33.6331L22.1001 35.8831C20.9335 36.8665 19.0501 36.8665 17.9168 35.8831L15.2835 33.6331C14.7835 33.2165 13.8335 32.8665 13.1835 32.8665H10.2835C8.5168 32.8665 7.0668 31.4165 7.0668 29.6498V26.7998C7.0668 26.1498 6.73346 25.1998 6.3168 24.7165L4.0668 22.0665C3.10013 20.9165 3.10013 19.0498 4.0668 17.8998L5.00013 16.7998" stroke="#06030E" stroke-width="3" stroke-linecap="round" stroke-linejoin="round"/>
</svg>
