<svg width="40" height="40" viewBox="0 0 40 40" fill="none" xmlns="http://www.w3.org/2000/svg">
<g clip-path="url(#clip0_19135_5561)">
<path d="M28.3 16.6999L32.5 12.4999C33.8833 11.1166 33.8833 8.88324 32.5 7.4999C31.1167 6.11657 28.8833 6.11657 27.5 7.4999L5.83334 29.1666C4.45 30.5499 4.45 32.7832 5.83334 34.1666C7.21667 35.5499 9.45 35.5499 10.8333 34.1666L24.1667 20.8332" stroke="#1570EF" stroke-width="2.5" stroke-linecap="round" stroke-linejoin="round"/>
<path d="M30.0167 14.9834L25.0167 9.9834" stroke="#1570EF" stroke-width="2.5" stroke-linecap="round" stroke-linejoin="round"/>
<path d="M15.9333 5.8335L16.6667 8.3335L14.1667 7.60016L11.6667 8.3335L12.4 5.8335L11.6667 3.3335L14.1667 4.06683" stroke="#1849A9" stroke-width="1.66667" stroke-linecap="round" stroke-linejoin="round"/>
<path d="M7.5 14.0668L10 13.3335L9.26667 15.8335L10 18.3335L7.5 17.6002L5 18.3335L5.73333 15.8335L5 13.3335L7.5 14.0668Z" stroke="#1849A9" stroke-width="1.66667" stroke-linecap="round" stroke-linejoin="round"/>
<path d="M30.7333 24.1665L30 21.6665L32.5 22.3998L35 21.6665L34.2667 24.1665L35 26.6665L32.5 25.9332" stroke="#1849A9" stroke-width="1.66667" stroke-linecap="round" stroke-linejoin="round"/>
</g>
<defs>
<clipPath id="clip0_19135_5561">
<rect width="40" height="40" fill="white"/>
</clipPath>
</defs>
</svg>
