<svg width="40" height="40" viewBox="0 0 40 40" fill="none" xmlns="http://www.w3.org/2000/svg">
<path d="M35.45 14.6C35.45 16.3 34.6667 17.8333 33.4 18.8333C32.4834 19.5833 31.3 20.0333 30.0167 20.0333C27.0334 20.0333 24.6 17.6 24.6 14.6167C24.6 13.1333 25.2 11.7833 26.2 10.8V10.7833C27.1834 9.80002 28.5334 9.18335 30.0167 9.18335C33.0167 9.18335 35.45 11.6167 35.45 14.6Z" fill="white"/>
<path d="M33.6334 31.2169C31.8834 32.8169 29.6334 33.7002 27.25 33.7002H9.95004C5.38337 33.3669 3.35004 29.8502 3.35004 26.7169C3.35004 23.9169 4.9667 20.8169 8.5167 19.9502C6.9667 13.9836 9.93337 9.8169 13.4 7.83357C16.8334 5.88357 21.6667 5.5669 25.3 8.25024C24.9834 8.48357 24.7 8.73357 24.4167 9.0169L23.7 9.7669V9.8669C22.6667 11.2169 22.1 12.8669 22.1 14.6002C22.1 18.9669 25.6667 22.5169 30.0334 22.5169C31.8334 22.5169 33.5834 21.9002 34.95 20.7836C35.2 20.5836 35.45 20.3669 35.6667 20.1336C37.3167 23.6002 37.0834 28.2002 33.6334 31.2169Z" fill="white"/>
</svg>
