<svg width="40" height="40" viewBox="0 0 40 40" fill="none" xmlns="http://www.w3.org/2000/svg">
<path d="M36.6667 19.9999C36.6667 10.7999 29.2 3.33325 20 3.33325C10.8 3.33325 3.33334 10.7999 3.33334 19.9999C3.33334 29.1999 10.8 36.6666 20 36.6666" stroke="#06030E" stroke-width="3" stroke-linecap="round" stroke-linejoin="round"/>
<path d="M13.3333 5H15C11.75 14.7333 11.75 25.2667 15 35H13.3333" stroke="#06030E" stroke-width="3" stroke-linecap="round" stroke-linejoin="round"/>
<path d="M25 5C26.6167 9.86667 27.4333 14.9333 27.4333 20" stroke="#06030E" stroke-width="3" stroke-linecap="round" stroke-linejoin="round"/>
<path d="M5 26.6667V25C9.86667 26.6167 14.9333 27.4334 20 27.4334" stroke="#06030E" stroke-width="3" stroke-linecap="round" stroke-linejoin="round"/>
<path d="M35 15C30.1333 13.3834 25.0667 12.5667 20 12.5667" stroke="#06030E" stroke-width="3" stroke-linecap="round" stroke-linejoin="round"/>
<path d="M5 14.9999C7.65 14.1166 10.35 13.4833 13.0833 13.0667" stroke="#06030E" stroke-width="3" stroke-linecap="round" stroke-linejoin="round"/>
<path d="M30.3333 35.6667C33.2788 35.6667 35.6667 33.2789 35.6667 30.3334C35.6667 27.3878 33.2788 25 30.3333 25C27.3878 25 25 27.3878 25 30.3334C25 33.2789 27.3878 35.6667 30.3333 35.6667Z" stroke="#06030E" stroke-width="3" stroke-linecap="round" stroke-linejoin="round"/>
<path d="M36.6667 36.6667L35 35" stroke="#06030E" stroke-width="3" stroke-linecap="round" stroke-linejoin="round"/>
</svg>
