<svg width="40" height="40" viewBox="0 0 40 40" fill="none" xmlns="http://www.w3.org/2000/svg">
<path d="M31.7833 10.4499C35.2667 17.4499 31.6 24.8832 26.2167 28.1332V30.0666C26.2167 30.5499 26.4 31.6666 24.6167 31.6666H15.4333C13.6 31.6666 13.8333 30.9499 13.8333 30.0666V28.1332C10 25.8166 6.85 21.2999 6.85 16.4999C6.85 8.24989 14.4333 1.78322 23 3.64989C24.25 3.93322 25.4667 4.38322 26.5667 4.99989" stroke="#06030E" stroke-width="3" stroke-linecap="round" stroke-linejoin="round"/>
<path d="M20 13.1499L18.2167 16.2499C17.8167 16.9332 18.15 17.4999 18.9333 17.4999H21.05C21.85 17.4999 22.1667 18.0666 21.7667 18.7499L20 21.8499" stroke="#06030E" stroke-width="3" stroke-linecap="round" stroke-linejoin="round"/>
<path d="M14.1667 36.6667C17.9833 35.5834 22.0167 35.5834 25.8333 36.6667" stroke="#06030E" stroke-width="3" stroke-linecap="round" stroke-linejoin="round"/>
</svg>
