<svg width="40" height="40" viewBox="0 0 40 40" fill="none" xmlns="http://www.w3.org/2000/svg">
<path d="M34.95 17.2833V22.6C34.95 26.4667 31.8167 29.6 27.95 29.6H22.0167C21.1 29.6 20.35 30.3333 20.35 31.2667V32.6333C20.35 33.55 21.1 34.3 22.0167 34.3H25.7833C26.4333 34.3 26.9667 34.8167 26.9667 35.4833C26.9667 36.1333 26.4333 36.6667 25.7833 36.6667H12.55C11.9 36.6667 11.3667 36.1333 11.3667 35.4833C11.3667 34.8167 11.9 34.3 12.55 34.3H16.3167C17.2333 34.3 17.9833 33.55 17.9833 32.6333V31.2667C17.9833 30.3333 17.2333 29.6 16.3167 29.6H10.3167C6.46667 29.6 3.33334 26.4667 3.33334 22.6V11.9833C3.33334 8.13333 6.46667 5 10.3167 5H17.5C18.4167 5 19.1667 5.75 19.1667 6.66667V10.25C19.1667 13.4667 21.3167 15.6167 24.5167 15.6167H33.2833C34.2 15.6167 34.95 16.3667 34.95 17.2833Z" fill="white"/>
<path d="M36.65 3.93343L34.7667 5.2501V4.5501C34.7667 2.96677 33.4833 1.7001 31.9167 1.7001H24.7833C23.0667 1.68343 21.6667 3.08343 21.6667 4.8001V10.2668C21.6667 11.7001 22.3833 13.1168 24.5167 13.1168H31.9C33.4833 13.1168 34.75 11.8334 34.75 10.2668V9.5501L36.6333 10.8668C37.5833 11.5168 38.3333 11.1168 38.3333 9.98343V4.81677C38.3333 3.68343 37.5833 3.3001 36.65 3.93343Z" fill="white"/>
</svg>
