<svg width="40" height="40" viewBox="0 0 40 40" fill="none" xmlns="http://www.w3.org/2000/svg">
<path d="M14.45 23.3333H6.66667C4.83334 23.3333 3.33334 24.8333 3.33334 26.6666V36.6666H14.45V23.3333Z" stroke="#06030E" stroke-width="3" stroke-miterlimit="10" stroke-linecap="round" stroke-linejoin="round"/>
<path d="M25.55 20.0001C25.55 18.1667 24.05 16.6667 22.2167 16.6667H17.7667C15.9333 16.6667 14.4333 18.1667 14.4333 20.0001V36.6667H25.55V26.6667" stroke="#06030E" stroke-width="3" stroke-miterlimit="10" stroke-linecap="round" stroke-linejoin="round"/>
<path d="M33.3333 28.3333H25.55V36.6666H36.6667V31.6666C36.6667 29.8333 35.1667 28.3333 33.3333 28.3333Z" stroke="#06030E" stroke-width="3" stroke-miterlimit="10" stroke-linecap="round" stroke-linejoin="round"/>
<path d="M20.8667 3.44995L21.75 5.21661C21.8667 5.46661 22.1833 5.69994 22.45 5.73327L24.05 5.99995C25.0667 6.16661 25.3167 6.91658 24.5833 7.63325L23.3333 8.88325C23.1167 9.09991 23 9.49993 23.0667 9.78326L23.4167 11.3166C23.7 12.5333 23.05 13 21.9833 12.3666L20.4833 11.4833C20.2167 11.3166 19.7667 11.3166 19.5 11.4833L18 12.3666C16.9333 13 16.2833 12.5333 16.5667 11.3166L16.9167 9.78326C16.9833 9.49993 16.8667 9.08325 16.65 8.88325L15.4167 7.64993C14.6833 6.9166 14.9167 6.18325 15.95 6.01658L17.55 5.74996C17.8167 5.69996 18.1333 5.46663 18.25 5.23329L19.1333 3.46658C19.6167 2.49991 20.3833 2.49995 20.8667 3.44995Z" stroke="#06030E" stroke-width="3" stroke-linecap="round" stroke-linejoin="round"/>
</svg>
