<svg width="40" height="40" viewBox="0 0 40 40" fill="none" xmlns="http://www.w3.org/2000/svg">
<path d="M28.2667 10.2834C31.6 12.6001 33.9 16.2834 34.3667 20.5334" stroke="#06030E" stroke-width="3" stroke-linecap="round" stroke-linejoin="round"/>
<path d="M5.81667 20.6167C6.25 16.3834 8.51667 12.7 11.8167 10.3667" stroke="#06030E" stroke-width="3" stroke-linecap="round" stroke-linejoin="round"/>
<path d="M13.65 34.8999C15.5833 35.8832 17.7833 36.4332 20.1 36.4332C22.3333 36.4332 24.4333 35.9332 26.3167 35.0166" stroke="#06030E" stroke-width="3" stroke-linecap="round" stroke-linejoin="round"/>
<path d="M15.4667 8.19998C15.4667 10.75 17.5333 12.8333 20.1 12.8333C22.6667 12.8333 24.7333 10.7667 24.7333 8.19998C24.7333 5.63332 22.6667 3.56665 20.1 3.56665" stroke="#06030E" stroke-width="3" stroke-linecap="round" stroke-linejoin="round"/>
<path d="M8.05 33.2C10.6089 33.2 12.6833 31.1256 12.6833 28.5667C12.6833 26.0078 10.6089 23.9333 8.05 23.9333C5.49108 23.9333 3.41666 26.0078 3.41666 28.5667C3.41666 31.1256 5.49108 33.2 8.05 33.2Z" stroke="#06030E" stroke-width="3" stroke-linecap="round" stroke-linejoin="round"/>
<path d="M36.5667 28.5667C36.5667 26.0167 34.5 23.9333 31.9333 23.9333C29.3667 23.9333 27.3 26 27.3 28.5667C27.3 31.1333 29.3667 33.2 31.9333 33.2" stroke="#06030E" stroke-width="3" stroke-linecap="round" stroke-linejoin="round"/>
</svg>
