<svg width="40" height="40" viewBox="0 0 40 40" fill="none" xmlns="http://www.w3.org/2000/svg">
<path d="M32.5667 10.8999L27.45 5.78325C25.8833 4.21659 23.7667 3.33325 21.55 3.33325H13.3333C8.33333 3.33325 5 6.66659 5 11.6666V28.3333C5 33.3333 8.33333 36.6666 13.3333 36.6666H26.6667C31.6667 36.6666 35 33.3333 35 28.3333V16.7833C35 14.5666 34.1167 12.4499 32.5667 10.8999ZM16.7167 29.1166C17.2 29.5999 17.2 30.3999 16.7167 30.8833C16.4667 31.1333 16.15 31.2499 15.8333 31.2499C15.5167 31.2499 15.2 31.1333 14.95 30.8833L11.6167 27.5499C11.1333 27.0666 11.1333 26.2666 11.6167 25.7833L14.95 22.4499C15.4333 21.9666 16.2333 21.9666 16.7167 22.4499C17.2 22.9333 17.2 23.7333 16.7167 24.2166L14.2667 26.6666L16.7167 29.1166ZM28.3833 27.5499L25.05 30.8833C24.8 31.1333 24.4833 31.2499 24.1667 31.2499C23.85 31.2499 23.5333 31.1333 23.2833 30.8833C22.8 30.3999 22.8 29.5999 23.2833 29.1166L25.7333 26.6666L23.2833 24.2166C22.8 23.7333 22.8 22.9333 23.2833 22.4499C23.7667 21.9666 24.5667 21.9666 25.05 22.4499L28.3833 25.7833C28.8667 26.2666 28.8667 27.0666 28.3833 27.5499Z" fill="white"/>
</svg>
