<svg width="219" height="288" viewBox="0 0 219 288" fill="none" xmlns="http://www.w3.org/2000/svg">
<g opacity="0.2">
<path d="M164.531 13.6784C162.884 19.3781 161.238 25.0778 159.591 30.7775C157.364 38.0286 155.137 45.2801 152.911 52.5313C144.148 81.0635 145.482 76.6923 134.513 112.853C133.581 115.861 132.649 118.869 131.718 121.877C127.328 136.054 126.516 138.712 125.773 141.351C125.382 142.586 124.991 143.821 124.599 145.056C123.954 147.094 122.857 150.642 122.162 152.941C121.467 155.24 119.259 162.55 113.614 181.249C113.034 183.054 112.454 184.859 111.874 186.664C110.917 189.642 109.907 192.848 109.629 193.789C109.185 195.291 108.335 198.085 105.641 206.898C105.258 208.152 104.245 211.443 101.834 219.247C99.2273 227.765 96.6206 236.283 94.0136 244.801C89.7122 258.855 85.6221 272.235 84.9241 274.534C84.2261 276.833 83.3354 279.74 82.9448 280.994C82.7081 281.754 82.471 282.514 82.2342 283.274C73.315 283.337 64.3961 283.4 55.4769 283.464C53.577 283.464 51.6771 283.464 49.7772 283.464C49.5557 283.349 49.3337 283.234 49.1122 283.12C48.6961 282.905 49.7977 282.853 52.0571 282.98C55.5259 283.174 55.6482 283.154 55.1953 282.468C54.9278 282.063 54.8047 281.149 54.9107 280.355C55.0137 279.585 54.9069 278.474 54.6736 277.885C54.4403 277.296 54.1865 274.164 54.1097 270.924C53.9668 264.908 53.9383 264.539 53.4219 262.122C52.7034 258.757 49.8767 258.379 48.3933 261.45C47.9457 262.376 47.4722 263.783 47.3411 264.576C47.21 265.369 46.938 266.31 46.7362 266.666C46.5344 267.023 46.2111 267.913 46.0177 268.644C45.8243 269.376 45.6506 269.675 45.5974 268.644C46.3574 265.985 47.1173 263.325 47.8773 260.665C49.0172 256.612 50.1572 252.559 51.2971 248.506C51.7303 247.207 52.1638 245.909 52.597 244.611C53.3121 242.468 56.0628 233.62 58.7097 224.947C61.3567 216.274 64.0082 207.639 64.6017 205.758C65.1952 203.877 67.4888 196.482 73.7159 176.309C74.9949 172.098 76.2739 167.886 77.5529 163.675C79.6633 156.726 81.4587 150.656 81.6954 149.331C82.2768 147.526 82.8586 145.721 83.4399 143.916C84.3994 140.938 85.4941 137.476 85.8725 136.222C86.251 134.968 87.6034 130.479 91.1949 118.553C94.7413 106.773 98.288 94.9939 101.834 83.2146C102.297 81.8531 102.76 80.4913 103.223 79.1298C103.987 76.883 105.342 72.6512 106.234 69.7253C108.772 61.4034 125 8.41228 125.725 6.07883C125.941 5.38232 126.158 4.68544 126.374 3.98894C137.699 3.92548 149.025 3.86241 160.351 3.79895C162.124 3.92548 163.897 4.0524 165.671 4.17893C165.174 4.24923 164.677 4.31914 164.181 4.38944C163.361 4.50533 162.521 4.80438 162.314 5.0544C161.726 5.76344 161.111 11.0528 161.111 15.3933C161.111 19.2128 161.39 20.2555 162.152 19.2789C162.495 18.8393 162.754 18.0394 163.966 13.6784C164.257 12.6312 164.458 12.2998 164.531 13.6784Z" fill="white"/>
<path d="M135.422 114.805C138.509 116.045 151.495 121.156 157.547 123.509C164.864 126.355 173.715 129.832 174.8 130.287C178.591 131.879 189.907 136.385 198.964 139.911C201.366 140.847 204.524 142.088 205.982 142.67L211.352 144.815C211.939 145.049 212.559 145.297 213.168 145.54C213.209 147.699 213.25 149.858 213.291 152.017C213.337 154.495 213.384 156.974 213.43 159.453C213.524 164.442 213.561 168.205 213.542 170.776C213.533 172.063 213.51 173.035 213.474 173.706C213.461 173.958 213.444 174.154 213.429 174.303C213.333 174.371 213.209 174.454 213.053 174.544C212.62 174.796 212.048 175.071 211.456 175.294C210.123 175.797 205.785 177.47 201.815 179.013C197.844 180.556 193.229 182.344 191.559 182.988C189.881 183.634 185.774 185.242 182.429 186.561C179.087 187.879 174.303 189.752 171.798 190.721C169.292 191.691 166.458 192.806 165.502 193.198C164.582 193.575 159.814 195.421 154.894 197.305C143.828 201.542 137.051 204.173 136.011 204.638C135.639 204.805 133.804 205.53 131.906 206.256C130.023 206.977 124.72 209.018 120.123 210.791C110.796 214.389 106.514 216.029 104.063 216.931C105.872 211.073 106.689 208.419 107.025 207.322C109.717 198.513 110.569 195.711 111.016 194.2H111.017C111.289 193.279 112.293 190.09 113.251 187.108C113.541 186.205 113.832 185.302 114.122 184.4C114.278 183.913 114.434 183.427 114.59 182.941C114.625 182.934 114.659 182.929 114.692 182.921C115.021 182.849 115.453 182.734 115.947 182.592C116.943 182.307 118.283 181.885 119.751 181.401C122.686 180.433 126.197 179.191 128.591 178.232C129.288 177.952 133.526 176.419 138.037 174.818C142.527 173.223 147.154 171.567 148.314 171.138C149.445 170.72 152.848 169.532 155.879 168.497C158.879 167.474 161.98 166.354 162.721 166.015C163.004 165.886 163.306 165.768 163.554 165.686C163.679 165.645 163.775 165.617 163.84 165.601C163.855 165.597 163.866 165.595 163.875 165.593C164.072 165.582 164.255 165.546 164.371 165.519C164.535 165.481 164.711 165.429 164.885 165.373C165.235 165.262 165.633 165.112 166.008 164.946C167.158 164.438 173.974 161.998 175.481 161.559C175.81 161.463 176.141 161.326 176.42 161.159C176.555 161.078 176.731 160.959 176.892 160.795C176.989 160.696 177.338 160.331 177.371 159.752L177.373 159.634C177.362 159.057 177.031 158.697 176.934 158.597C176.8 158.458 176.66 158.363 176.574 158.308C176.392 158.192 176.172 158.084 175.95 157.983C175.488 157.774 174.78 157.493 173.754 157.109C171.691 156.336 168.211 155.097 162.542 153.103C159.194 151.925 155.621 150.643 154.597 150.252C153.532 149.846 150.18 148.642 147.152 147.578C144.112 146.511 141.063 145.416 140.36 145.141C139.64 144.859 136.421 143.677 127.536 140.453C128.248 138.003 129.403 134.244 133.1 122.306C133.566 120.802 134.032 119.298 134.498 117.794C134.806 116.798 135.114 115.801 135.422 114.805Z" fill="white" stroke="white" stroke-width="2.89378"/>
<path d="M90.2913 116.534C90.266 116.535 90.2412 116.535 90.217 116.536C89.7625 116.554 89.2372 116.657 88.6868 116.8C87.5685 117.09 86.0557 117.625 84.1946 118.375C83.2901 118.74 80.754 119.662 78.5608 120.424C75.1485 121.608 60.9722 126.7 54.7903 128.961C53.7527 129.341 51.1079 130.287 48.9143 131.064C46.7202 131.842 44.1878 132.741 43.2874 133.063C42.7811 133.245 42.2977 133.464 41.9329 133.696C41.7751 133.797 41.5112 133.979 41.3059 134.248C41.2057 134.379 41.0131 134.669 40.9768 135.083C40.9319 135.596 41.1461 136.06 41.4924 136.363H41.4934C41.633 136.485 41.7739 136.561 41.804 136.577C41.8643 136.61 41.9256 136.64 41.9788 136.665C42.0866 136.716 42.2193 136.772 42.3674 136.834C42.6672 136.958 43.0854 137.123 43.6125 137.325C44.6698 137.73 46.2067 138.302 48.2092 139.033C52.2166 140.497 58.1129 142.613 65.8215 145.354C70.0001 146.841 75.0237 148.652 76.9846 149.379C78.2855 149.861 79.2562 150.191 79.9592 150.355C79.727 151.23 79.3812 152.467 78.9377 153.991C78.1979 156.535 77.2229 159.783 76.1682 163.256C75.5287 165.362 74.8897 167.467 74.2502 169.573C73.6988 171.389 73.1464 173.205 72.595 175.021C72.5754 175.029 72.5559 175.037 72.5383 175.045C72.5348 175.047 72.5311 175.048 72.5276 175.05C72.3687 175.01 72.1671 174.955 71.925 174.882C71.1773 174.655 70.1554 174.298 69.0481 173.866C58.3746 169.706 51.3309 166.977 38.5188 162.035C30.8907 159.093 22.9421 156.021 20.8538 155.209C9.61755 150.839 6.42349 149.611 5.42798 149.293C5.39345 144.808 5.35899 140.322 5.32446 135.837C5.27997 130.066 5.27768 126.443 5.33423 124.229C5.36221 123.134 5.40419 122.427 5.45532 121.989C5.46263 121.986 5.4703 121.983 5.47778 121.979C5.79933 121.835 6.24333 121.644 6.78149 121.419C7.85605 120.97 9.27797 120.397 10.7844 119.812L10.7834 119.811C18.61 116.767 27.5276 113.27 37.1995 109.449C41.796 107.633 53.1662 103.156 62.4661 99.5C90.8328 88.3477 93.6876 87.2216 97.5637 85.6484C98.394 85.3115 99.1696 85.0302 99.8352 84.8379C96.6601 95.384 93.4659 105.99 90.2913 116.534ZM5.51392 121.628C5.52205 121.6 5.52166 121.605 5.51196 121.632C5.5124 121.63 5.51358 121.629 5.51392 121.628Z" fill="white" stroke="white" stroke-width="2.89378"/>
<path d="M160.351 3.79979C149.026 3.86325 137.7 3.92632 126.374 3.98978C126.158 4.68628 125.941 5.38316 125.725 6.07967C125 8.41312 108.772 61.4043 106.234 69.7262C105.342 72.652 103.987 76.8838 103.223 79.1307C102.76 80.4921 102.297 81.854 101.834 83.2154C100.997 82.8868 99.0739 83.4734 97.0197 84.3071C93.153 85.8764 90.3093 86.9985 61.9366 98.1532C52.6366 101.809 41.2657 106.287 36.668 108.103C26.9979 111.923 18.0832 115.42 10.2594 118.463C7.2291 119.641 4.52859 120.77 4.25805 120.97C3.86743 121.259 3.78915 124.313 3.87807 135.847C3.91531 140.685 3.95254 145.523 3.98978 150.361C4.3063 150.459 4.62321 150.557 4.93973 150.655C5.79962 150.922 8.8083 152.076 20.3289 156.557C22.4188 157.37 30.3698 160.442 37.9979 163.384C50.8089 168.325 57.8507 171.055 68.5224 175.214C70.7863 176.096 72.7527 176.694 72.8922 176.542C73.0316 176.39 73.274 176.276 73.431 176.288C73.526 176.296 73.621 176.303 73.716 176.31C67.4889 196.483 65.1953 203.878 64.6018 205.759C64.0083 207.64 61.3568 216.275 58.7098 224.948C56.0629 233.621 53.3122 242.469 52.5971 244.612C52.1639 245.91 51.7304 247.208 51.2972 248.506C51.2972 247.873 51.2972 247.24 51.2972 246.606C51.8721 244.987 52.4858 242.978 53.0322 241.097C53.5786 239.216 54.1702 237.335 54.3473 236.917C54.5244 236.499 54.774 235.73 54.9024 235.207C55.4599 232.936 56.7054 228.882 57.0353 228.263C57.2328 227.893 57.4757 226.544 57.5752 225.266C57.701 223.647 57.9578 222.793 58.4214 222.45C58.9728 222.043 59.0005 221.873 58.5848 221.458C58.1695 221.044 57.9586 221.11 57.362 221.84C56.9657 222.325 56.531 223.351 56.3965 224.12C56.262 224.888 55.7437 226.232 55.2444 227.105C54.7451 227.978 54.337 228.964 54.337 229.295C54.337 229.627 54.174 230.195 53.9749 230.558C53.7758 230.921 53.2518 232.329 52.8103 233.687C52.3687 235.046 51.8649 236.499 51.6908 236.917C51.5168 237.335 51.0019 238.959 50.5471 240.527C50.0923 242.094 49.3057 244.702 48.7988 246.321C48.4918 247.303 48.1844 248.285 47.8774 249.266C46.552 253.397 46.039 254.594 45.8825 254.591C45.7875 254.589 45.6925 254.588 45.5975 254.586C46.8172 250.316 47.4773 248.136 47.8515 246.986C48.2258 245.837 48.8965 243.7 49.3418 242.237C49.7872 240.774 50.6554 237.952 51.2714 235.967C51.8873 233.982 52.8429 230.818 53.3951 228.937C53.9472 227.057 54.7048 224.577 55.0787 223.428C56.0017 220.592 56.6492 218.487 59.4645 209.179C62.7532 198.305 63.1145 197.135 63.4546 196.259C63.6169 195.841 63.9604 194.73 64.2172 193.789C64.4741 192.849 64.8233 191.652 64.9932 191.13C65.163 190.607 65.7436 188.726 66.2828 186.95C66.822 185.173 67.4509 183.107 67.68 182.358C68.3484 180.172 68.0619 179.692 65.5464 178.781C62.7361 177.762 61.9567 177.469 60.9867 177.065C60.5687 176.891 57.9183 175.869 55.097 174.794C50.6531 173.101 48.939 172.437 44.1726 170.566C43.7022 170.382 42.9331 170.073 42.4627 169.88C41.9923 169.688 38.6154 168.392 34.9581 167.001C31.3008 165.61 27.9239 164.314 27.4535 164.121C26.9831 163.929 26.1711 163.6 25.6486 163.391C25.1261 163.182 24.3137 162.853 23.8437 162.66C23.3737 162.466 20.8514 161.509 18.239 160.533C15.6266 159.557 13.1043 158.603 12.6343 158.414C12.1643 158.226 11.3519 157.9 10.8294 157.691C10.3069 157.482 9.45198 157.14 8.92951 156.931C8.40704 156.722 7.55209 156.38 7.02961 156.171C6.50714 155.962 5.69513 155.637 5.22471 155.449C4.7543 155.26 3.38675 154.747 2.18488 154.309C1.45646 154.043 0.72842 153.777 0 153.512C0 141.606 0 129.699 0 117.794C1.61947 117.122 2.60286 116.708 3.22982 116.44C3.85679 116.173 7.53309 114.731 11.3994 113.236C15.2657 111.742 18.771 110.383 19.1889 110.217C21.0748 109.469 21.9267 109.123 22.9887 108.674C24.5812 108.001 25.1463 107.779 29.4484 106.136C31.5383 105.337 33.9321 104.404 34.7681 104.061C35.604 103.719 37.0575 103.149 37.9979 102.795C38.9384 102.441 40.3063 101.892 41.0378 101.575C43.1056 100.677 43.6877 100.448 46.7374 99.3383C48.3049 98.768 50.2712 98.0008 51.1072 97.633C51.9432 97.2652 61.0057 93.6854 71.2461 89.6777C81.4865 85.6701 90.2071 82.2518 90.625 82.082C91.043 81.9121 91.9835 81.5241 92.7149 81.2198C93.4464 80.9154 95.0708 80.2721 96.3247 79.7892C97.5787 79.3062 98.8064 78.7575 99.0526 78.5694C99.4592 78.259 100.516 75.2005 102.566 68.3962C102.975 67.0378 103.993 63.7035 104.828 60.9867C106.25 56.3581 108.692 48.3558 109.465 45.7875C109.654 45.1605 110.081 43.7926 110.416 42.7477C110.75 41.7027 112.136 37.1715 113.495 32.6782C114.854 28.185 116.135 23.9957 116.342 23.3687C116.548 22.7418 116.859 21.7158 117.034 21.0888C117.208 20.4619 117.692 18.8375 118.11 17.479C118.528 16.1206 119.81 11.9313 120.96 8.16955C122.11 4.40776 123.169 1.03088 123.313 0.664964C123.557 0.0440776 124.821 0 142.343 0C148.599 0 154.855 0 161.111 0C160.985 0.253446 160.858 0.506512 160.731 0.759958C159.864 0.759958 158.997 0.759958 158.13 0.759958C156.028 0.759958 155.4 0.90321 154.854 1.50586C153.402 3.11089 154.289 3.41981 160.351 3.41981C160.351 3.54635 160.351 3.67326 160.351 3.79979Z" fill="white"/>
<path d="M55.4769 283.464C64.3961 283.4 73.315 283.337 82.2343 283.274C82.471 282.514 82.7081 281.754 82.9448 280.994C83.3354 279.74 84.2261 276.833 84.9241 274.534C85.6222 272.236 89.7123 258.855 94.0136 244.801C96.6207 236.283 99.2273 227.765 101.834 219.247C104.014 218.534 106.736 217.506 120.643 212.141C125.241 210.367 130.542 208.327 132.423 207.607C134.304 206.887 136.184 206.145 136.602 205.958C137.593 205.514 144.311 202.906 155.411 198.656C160.323 196.775 165.11 194.921 166.051 194.536C166.991 194.15 169.813 193.04 172.321 192.069C174.828 191.099 179.616 189.225 182.96 187.906C186.304 186.587 190.408 184.981 192.079 184.337C193.751 183.693 198.368 181.904 202.339 180.361C206.31 178.818 210.642 177.147 211.966 176.648C213.29 176.148 214.55 175.415 214.765 175.019C215.027 174.535 215.064 169.411 214.876 159.425C214.783 154.467 214.69 149.51 214.597 144.553C213.694 144.192 212.791 143.831 211.888 143.47C210.398 142.875 207.982 141.91 206.519 141.326C205.056 140.742 201.892 139.499 199.489 138.563C190.431 135.036 179.132 130.536 175.36 128.953C174.252 128.488 165.376 125 158.071 122.16C151.361 119.55 136.228 113.593 135.368 113.222C135.083 113.099 134.798 112.976 134.513 112.853C145.482 76.6926 144.148 81.0638 152.911 52.5316C155.137 45.2804 157.365 38.0289 159.591 30.7778C160.108 30.7778 160.441 30.0589 160.664 29.1803C161.062 27.6152 161.085 27.5966 161.827 28.2676C162.243 28.6442 162.783 28.8289 163.028 28.6776C163.519 28.374 163.302 29.7773 162.439 32.4877C161.698 34.8135 161.361 36.2392 161.429 36.7624C161.45 36.9209 161.471 37.079 161.491 37.2374C159.935 42.6852 159.189 45.2075 158.83 46.3569C158.471 47.5064 157.796 49.7292 157.331 51.2966C156.866 52.8641 156.179 55.0869 155.805 56.2364C155.43 57.3858 154.773 59.5232 154.344 60.9861C153.915 62.449 152.939 65.6979 152.174 68.2057C151.409 70.7136 150.63 73.2784 150.441 73.9054C150.252 74.5324 149.826 75.9003 149.494 76.9452C149.162 77.9902 148.044 81.6665 147.011 85.1148C145.978 88.5631 144.819 92.3249 144.436 93.4743C144.053 94.6238 143.521 96.3337 143.255 97.2741C142.988 98.2146 142.465 99.9245 142.092 101.074C140.604 105.66 139.452 109.774 139.452 110.505C139.452 111.149 140.443 111.663 145.437 113.613C148.729 114.898 151.935 116.174 152.562 116.448C153.189 116.722 160.37 119.549 168.521 122.73C176.671 125.911 183.853 128.738 184.48 129.011C185.107 129.285 186.817 129.966 188.28 130.525C189.743 131.085 191.281 131.681 191.699 131.85C192.117 132.02 193.656 132.622 195.119 133.19C196.582 133.757 198.164 134.372 198.634 134.557C199.104 134.741 199.874 135.04 200.344 135.221C201.366 135.614 202.967 136.273 204.144 136.782C204.614 136.986 207.735 138.201 211.078 139.482C214.422 140.763 217.457 141.97 217.823 142.165C218.442 142.494 218.488 143.736 218.488 159.938C218.488 173.423 218.381 177.44 218.013 177.725C217.752 177.927 215.828 178.731 213.738 179.51C211.648 180.289 209.596 181.069 209.178 181.243C208.761 181.417 206.11 182.447 203.289 183.533C194.37 186.965 192.085 187.853 190.654 188.441C190.184 188.634 186.38 190.102 182.2 191.702C178.02 193.302 174.173 194.791 173.65 195.011C173.128 195.231 172.316 195.559 171.846 195.74C171.375 195.921 170.606 196.229 170.136 196.424C169.666 196.619 166.288 197.915 162.631 199.303C154.344 202.449 154.039 202.566 152.182 203.339C151.346 203.687 148.097 204.942 144.962 206.128C141.827 207.314 138.877 208.443 138.407 208.637C137.937 208.83 137.082 209.182 136.507 209.419C135.933 209.656 135.078 209.998 134.608 210.179C134.138 210.36 133.368 210.665 132.898 210.858C132.428 211.05 129.905 212.004 127.293 212.978C124.681 213.951 122.116 214.928 121.593 215.149C120.704 215.524 119.807 215.887 117.983 216.611C117.565 216.777 114.575 217.935 111.338 219.184C108.101 220.433 105.329 221.685 105.179 221.967C105.028 222.247 104.371 224.273 103.718 226.467C103.065 228.661 102.225 231.397 101.851 232.547C101.177 234.616 100.022 238.432 98.4001 243.946C97.9392 245.513 97.2571 247.736 96.8847 248.886C96.5124 250.035 95.8463 252.173 95.4047 253.636C94.2967 257.306 92.518 263.101 90.9726 268.075C90.2583 270.374 89.4805 272.938 89.2437 273.774C88.5917 276.077 87.6144 279.061 86.1025 283.369C85.6469 284.667 85.1909 285.965 84.7353 287.264C53.2848 287.242 49.7077 287.142 50.1602 286.777C50.6645 286.369 50.6417 286.216 49.9702 285.498C49.5507 285.048 49.3353 284.664 49.4922 284.643C49.5872 284.63 49.6822 284.617 49.7772 284.604C49.7764 284.699 49.7757 284.794 49.7749 284.889C49.7738 285.045 50.0303 285.229 50.3449 285.297C50.6641 285.365 50.9171 285.155 50.9171 284.224C52.4371 283.97 53.957 283.717 55.4769 283.464Z" fill="white"/>
<path d="M45.5974 268.645C45.6506 269.676 45.8243 269.377 46.0177 268.645C46.2111 267.914 46.5345 267.023 46.7362 266.667C46.938 266.311 47.2101 265.37 47.3412 264.577C47.4723 263.784 47.9457 262.377 48.3933 261.45C49.8768 258.38 52.7034 258.758 53.422 262.123C53.9384 264.54 53.9669 264.909 54.1097 270.925C54.1865 274.164 54.4403 277.296 54.6736 277.885C54.9069 278.474 55.0137 279.586 54.9107 280.355C54.8047 281.149 54.9278 282.063 55.1953 282.469C55.6483 283.155 55.5259 283.175 52.0571 282.98C49.7977 282.853 48.6962 282.906 49.1122 283.121C49.3338 283.235 49.5557 283.35 49.7772 283.464C48.5107 283.464 47.2439 283.464 45.9774 283.464C44.2907 283.464 42.604 283.464 40.9172 283.464C41.0639 282.958 41.211 282.451 41.3576 281.944C41.5043 281.438 41.651 280.931 41.7976 280.424C41.9242 280.171 42.0511 279.918 42.1776 279.665C42.1769 279.76 42.1757 279.855 42.175 279.949C42.1734 280.106 42.5154 280.289 42.9349 280.356C43.492 280.445 43.6975 280.265 43.6975 279.691C43.6975 279.158 43.4528 278.905 42.1776 278.905C43.3176 275.485 44.4575 272.065 45.5974 268.645Z" fill="white"/>
<path d="M159.591 30.7783C161.238 25.0786 162.885 19.3789 164.531 13.6793C165.05 12.0959 165.57 10.5129 166.089 8.92951C166.609 7.34614 167.128 5.76314 167.648 4.17977C166.989 4.17977 166.33 4.17977 165.671 4.17977C163.898 4.05324 162.125 3.92633 160.351 3.79979C160.351 3.67326 160.351 3.54635 160.351 3.41981C160.499 3.38143 160.646 3.34268 160.793 3.3043C161.036 3.24084 161.276 2.94142 161.326 2.63934C161.376 2.33725 161.538 1.79084 161.685 1.42492C161.873 0.956408 161.772 0.759958 160.731 0.759958C160.858 0.506512 160.985 0.253446 161.111 0C164.974 0.0634565 168.837 0.126533 172.701 0.18999C172.666 0.506512 172.631 0.823415 172.596 1.13994C172.489 2.12028 170.437 9.10126 169.859 10.4494C169.681 10.8674 169.453 11.5514 169.353 11.9693C169.202 12.6009 166.748 20.726 163.385 31.7283C163.002 32.9822 162.419 34.735 162.09 35.6231C161.891 36.1615 161.691 36.6995 161.491 37.238C161.471 37.0795 161.45 36.9214 161.429 36.763C161.361 36.2398 161.698 34.8141 162.439 32.4882C163.302 29.7778 163.519 28.3746 163.028 28.6782C162.784 28.8294 162.243 28.6447 161.827 28.2682C161.085 27.5971 161.062 27.6157 160.664 29.1809C160.441 30.0594 160.108 30.7783 159.591 30.7783Z" fill="white"/>
<path d="M49.7773 283.465C51.6772 283.465 53.5771 283.465 55.477 283.465C53.9571 283.718 52.4371 283.971 50.9172 284.225C50.5372 284.351 50.1573 284.478 49.7773 284.605C49.6823 284.618 49.5873 284.631 49.4923 284.644C49.3354 284.665 49.5508 285.049 49.9703 285.499C50.6417 286.217 50.6645 286.37 50.1603 286.778C49.7078 287.143 53.2849 287.243 84.7354 287.265C39.3746 287.624 36.0475 287.576 35.8647 287.099C35.7485 286.796 35.989 285.555 36.3994 284.342C36.8097 283.128 37.4964 280.938 37.9254 279.475C39.4244 274.364 41.4763 267.693 41.6362 267.411C41.6902 267.316 41.7438 267.221 41.7977 267.126C41.8467 267.727 41.8954 268.329 41.9444 268.931C41.9934 269.532 42.0421 270.134 42.0911 270.736C42.3639 270.451 42.6363 270.166 42.9092 269.881C43.3591 269.411 43.9355 269.026 44.1901 269.026C44.6081 269.026 46.0938 264.771 46.6227 262.061C46.7382 261.47 47.0677 260.914 47.8774 260.666C47.1174 263.326 46.3575 265.986 45.5975 268.646C44.4576 272.066 43.3176 275.485 42.1777 278.905C42.1777 279.159 42.1777 279.412 42.1777 279.665C42.0512 279.919 41.9243 280.172 41.7977 280.425C41.6077 280.655 41.4177 280.885 41.2278 281.115C40.4841 282.016 40.5062 283.213 41.2943 284.719C41.5063 285.124 41.7183 285.529 41.9303 285.935C42.2564 285.654 42.5831 285.374 42.9092 285.093C43.6174 284.485 43.7299 284.233 43.3176 284.182C43.0042 284.143 43.4742 283.965 45.9775 283.465C47.244 283.465 48.5108 283.465 49.7773 283.465ZM41.7537 270.641C41.778 270.171 41.7122 269.786 41.6077 269.786C41.3756 269.786 41.3592 270.17 41.5591 270.926C41.6419 271.239 41.7293 271.111 41.7537 270.641Z" fill="white"/>
<path d="M51.2971 248.507C50.1571 252.56 49.0172 256.613 47.8773 260.666C47.0675 260.914 46.7381 261.47 46.6226 262.061C46.0937 264.771 44.6079 269.026 44.19 269.026C43.9354 269.026 43.3589 269.411 42.909 269.881C42.6362 270.166 42.3638 270.451 42.091 270.736C42.0419 270.134 41.9933 269.532 41.9443 268.931C41.8953 268.329 41.8466 267.727 41.7976 267.126C42.9326 263.176 44.0908 259.326 45.084 256.201C45.255 255.663 45.4264 255.125 45.5974 254.586C45.6924 254.588 45.7874 254.59 45.8824 254.591C46.0389 254.594 46.5519 253.397 47.8773 249.267C48.2067 248.891 48.5362 248.516 48.8656 248.14C49.409 247.521 50.1784 246.922 51.2971 246.607C51.2971 247.24 51.2971 247.873 51.2971 248.507Z" fill="white"/>
<path d="M51.2973 246.606C50.1786 246.922 49.4091 247.52 48.8658 248.139C48.5363 248.515 48.2069 248.891 47.8774 249.266C48.1845 248.285 48.4919 247.303 48.7989 246.321C49.3058 244.701 50.0923 242.094 50.5472 240.527C51.002 238.959 51.5169 237.335 51.6909 236.917C51.8649 236.499 52.3688 235.045 52.8103 233.687C53.2519 232.329 53.7759 230.92 53.975 230.557C54.1741 230.195 54.3371 229.627 54.3371 229.295C54.3371 228.964 54.7452 227.978 55.2445 227.105C55.7438 226.232 56.2621 224.888 56.3966 224.119C56.5311 223.351 56.9658 222.325 57.3621 221.84C57.9587 221.11 58.1696 221.044 58.5849 221.458C59.0006 221.873 58.9728 222.043 58.4215 222.45C57.9579 222.793 57.701 223.646 57.5753 225.265C57.4757 226.543 57.2329 227.892 57.0353 228.263C56.7055 228.882 55.4599 232.936 54.9025 235.207C54.7741 235.729 54.5244 236.499 54.3473 236.917C54.1703 237.335 53.5786 239.216 53.0322 241.097C52.4858 242.977 51.8722 244.986 51.2973 246.606Z" fill="white"/>
<path d="M164.531 13.6794C164.458 12.3008 164.257 12.6322 163.966 13.6794C162.755 18.0404 162.496 18.8403 162.152 19.2799C161.391 20.2565 161.111 19.2138 161.111 15.3943C161.111 11.0538 161.727 5.76445 162.314 5.0554C162.521 4.80538 163.361 4.50633 164.181 4.39044C164.677 4.32014 165.174 4.25023 165.671 4.17993C166.33 4.17993 166.989 4.17993 167.648 4.17993C167.128 5.7633 166.609 7.3463 166.089 8.92967C165.57 10.513 165.051 12.096 164.531 13.6794Z" fill="white"/>
<path d="M160.731 0.759766C161.772 0.759766 161.874 0.956215 161.685 1.42473C161.538 1.79065 161.377 2.33706 161.326 2.63914C161.276 2.94123 161.036 3.24065 160.793 3.30411C160.646 3.34248 160.499 3.38124 160.351 3.41962C154.289 3.41962 153.402 3.1107 154.855 1.50566C155.4 0.903017 156.028 0.759766 158.13 0.759766C158.997 0.759766 159.864 0.759766 160.731 0.759766Z" fill="white"/>
<path d="M45.9774 283.465C43.4741 283.965 43.0041 284.142 43.3175 284.181C43.7298 284.232 43.6173 284.484 42.9091 285.093C42.583 285.374 42.2563 285.654 41.9302 285.934C41.7182 285.529 41.5062 285.124 41.2941 284.718C40.5061 283.213 40.484 282.015 41.2277 281.115C41.4176 280.885 41.6076 280.655 41.7976 280.425C41.6509 280.931 41.5043 281.438 41.3576 281.945C41.2109 282.451 41.0639 282.958 40.9172 283.465C42.6039 283.465 44.2907 283.465 45.9774 283.465Z" fill="white"/>
<path d="M42.1777 279.665C42.1777 279.412 42.1777 279.158 42.1777 278.905C43.4529 278.905 43.6976 279.158 43.6976 279.692C43.6976 280.266 43.4921 280.445 42.935 280.357C42.5155 280.29 42.1735 280.107 42.1751 279.95C42.1758 279.855 42.177 279.76 42.1777 279.665Z" fill="white"/>
<path d="M49.7774 284.604C50.1574 284.477 50.5374 284.35 50.9174 284.224C50.9174 285.155 50.6643 285.365 50.3451 285.296C50.0305 285.229 49.774 285.045 49.7752 284.889C49.7759 284.794 49.7767 284.699 49.7774 284.604Z" fill="white"/>
<path d="M41.7538 270.641C41.7295 271.111 41.6421 271.239 41.5593 270.926C41.3594 270.17 41.3757 269.786 41.6079 269.786C41.7124 269.786 41.7781 270.171 41.7538 270.641Z" fill="white"/>
</g>
</svg>
