<svg width="353" height="465" viewBox="0 0 353 465" fill="none" xmlns="http://www.w3.org/2000/svg">
<g opacity="0.2">
<path d="M265.824 22.0994C263.164 31.3081 260.503 40.5168 257.843 49.7255C254.246 61.4408 250.648 73.1567 247.05 84.872C232.893 130.97 235.048 123.908 217.325 182.331C215.82 187.191 214.315 192.051 212.81 196.911C205.717 219.816 204.406 224.111 203.205 228.374C202.573 230.369 201.941 232.365 201.309 234.36C200.266 237.652 198.493 243.384 197.37 247.099C196.248 250.813 192.681 262.623 183.56 292.835C182.623 295.751 181.686 298.667 180.749 301.583C179.204 306.395 177.571 311.575 177.122 313.094C176.404 315.522 175.031 320.036 170.679 334.274C170.059 336.3 168.423 341.618 164.529 354.226C160.317 367.988 156.105 381.75 151.893 395.512C144.944 418.219 138.335 439.837 137.208 443.551C136.08 447.265 134.641 451.961 134.01 453.987C133.627 455.215 133.244 456.443 132.862 457.671C118.451 457.773 104.042 457.875 89.6312 457.978C86.5616 457.978 83.492 457.978 80.4225 457.978C80.0646 457.793 79.706 457.608 79.3481 457.423C78.6759 457.075 80.4556 456.991 84.106 457.196C89.7104 457.51 89.9081 457.478 89.1763 456.369C88.7441 455.714 88.5452 454.238 88.7164 452.955C88.8828 451.711 88.7103 449.916 88.3334 448.964C87.9564 448.013 87.5463 442.952 87.4223 437.719C87.1915 427.999 87.1454 427.402 86.3111 423.497C85.1502 418.06 80.5833 417.45 78.1866 422.411C77.4634 423.908 76.6985 426.181 76.4867 427.463C76.2749 428.743 75.8353 430.263 75.5093 430.839C75.1833 431.415 74.6609 432.853 74.3484 434.035C74.0359 435.217 73.7554 435.701 73.6694 434.035C74.8973 429.738 76.1251 425.44 77.3529 421.143C79.1947 414.594 81.0364 408.046 82.8781 401.498C83.578 399.4 84.2785 397.303 84.9783 395.205C86.1337 391.744 90.5778 377.448 94.8543 363.435C99.1309 349.423 103.415 335.471 104.374 332.432C105.333 329.394 109.038 317.446 119.099 284.854C121.165 278.05 123.232 271.246 125.298 264.442C128.708 253.214 131.609 243.407 131.991 241.266C132.93 238.35 133.87 235.434 134.81 232.518C136.36 227.707 138.128 222.112 138.74 220.086C139.351 218.06 141.536 210.809 147.339 191.539C153.069 172.508 158.799 153.477 164.529 134.446C165.276 132.246 166.025 130.046 166.772 127.846C168.006 124.216 170.195 117.379 171.637 112.652C175.738 99.2063 201.956 13.5912 203.127 9.82117C203.476 8.69587 203.826 7.56995 204.176 6.44465C222.474 6.34213 240.773 6.24022 259.071 6.1377C261.936 6.34213 264.801 6.54718 267.666 6.75161C266.864 6.86518 266.061 6.97814 265.258 7.09172C263.934 7.27896 262.577 7.76211 262.242 8.16606C261.293 9.31163 260.299 17.8573 260.299 24.87C260.299 31.0411 260.75 32.7257 261.981 31.1479C262.535 30.4376 262.954 29.1453 264.911 22.0994C265.382 20.4075 265.706 19.8722 265.824 22.0994Z" fill="#1570EF"/>
<path d="M218.795 185.486C223.784 187.489 244.762 195.745 254.54 199.547C266.362 204.144 280.663 209.762 282.416 210.498C288.54 213.069 306.822 220.35 321.456 226.048C325.336 227.559 330.44 229.566 332.795 230.506L341.47 233.97C342.488 234.376 343.434 234.754 344.406 235.142C344.546 242.636 344.687 250.124 344.827 257.619C344.979 265.681 345.039 271.76 345.009 275.913C344.994 277.993 344.957 279.563 344.9 280.648C344.878 281.056 344.85 281.376 344.826 281.617C344.672 281.726 344.47 281.858 344.22 282.003C343.521 282.41 342.595 282.853 341.638 283.214C339.486 284.026 332.475 286.73 326.062 289.222C319.647 291.715 312.19 294.605 309.492 295.644C306.782 296.688 300.145 299.286 294.741 301.417C289.342 303.547 281.612 306.572 277.566 308.138C273.516 309.706 268.937 311.506 267.393 312.139C265.906 312.749 258.203 315.732 250.254 318.776C232.376 325.622 221.426 329.871 219.746 330.623H219.745C219.144 330.893 216.179 332.065 213.113 333.239C211.592 333.821 208.69 334.936 205.24 336.264L194.075 340.566C179.008 346.378 172.091 349.027 168.13 350.484C169.38 346.435 170.338 343.334 171.066 340.972L172.914 334.959C176.177 324.286 177.768 319.07 178.663 316.1L179.364 313.758C179.803 312.27 181.427 307.118 182.975 302.3C183.696 300.056 184.416 297.812 185.137 295.569C185.193 295.557 185.248 295.548 185.302 295.536C185.833 295.42 186.532 295.234 187.329 295.005C188.939 294.544 191.104 293.863 193.477 293.08C198.218 291.516 203.89 289.511 207.758 287.96H207.759C208.885 287.508 215.732 285.032 223.019 282.445C230.273 279.869 237.748 277.192 239.622 276.499C241.448 275.824 246.947 273.905 251.845 272.234C256.691 270.579 261.704 268.77 262.901 268.222C263.357 268.013 263.844 267.823 264.245 267.69C264.446 267.623 264.602 267.578 264.707 267.553C264.73 267.548 264.748 267.543 264.761 267.54C265.082 267.523 265.378 267.464 265.565 267.42C265.83 267.358 266.115 267.276 266.397 267.186C266.82 267.05 267.288 266.88 267.751 266.69L268.211 266.494C269.952 265.725 279.74 262.213 282.962 261.192L283.515 261.022C284.046 260.867 284.581 260.647 285.033 260.376C285.251 260.246 285.536 260.054 285.796 259.788C285.954 259.628 286.514 259.038 286.568 258.104L286.572 257.912C286.554 256.98 286.02 256.4 285.863 256.238C285.646 256.014 285.421 255.859 285.281 255.77C284.988 255.582 284.632 255.408 284.273 255.245C283.527 254.908 282.383 254.453 280.726 253.832C277.392 252.583 271.77 250.583 262.61 247.361C257.201 245.458 251.429 243.385 249.775 242.754C248.053 242.097 242.637 240.153 237.745 238.435C232.835 236.71 227.907 234.941 226.772 234.497C225.608 234.042 220.409 232.13 206.053 226.922C207.204 222.963 209.071 216.89 215.043 197.605C215.796 195.175 216.548 192.744 217.3 190.314C217.798 188.704 218.297 187.095 218.795 185.486Z" fill="#1570EF" stroke="#1570EF" stroke-width="4.67533"/>
<path d="M145.879 188.279C145.838 188.28 145.797 188.28 145.758 188.282C145.023 188.312 144.175 188.477 143.286 188.708C141.479 189.176 139.035 190.04 136.028 191.252C134.567 191.841 130.47 193.333 126.927 194.563C121.414 196.477 98.5093 204.702 88.5215 208.355C86.8451 208.968 82.5723 210.498 79.0283 211.754C75.4836 213.01 71.3926 214.463 69.9375 214.984C69.1195 215.277 68.3385 215.63 67.749 216.006C67.4942 216.168 67.0682 216.462 66.7363 216.897C66.5745 217.109 66.2619 217.576 66.2031 218.246C66.1305 219.075 66.4775 219.826 67.0371 220.315L67.0381 220.316C67.2639 220.513 67.4928 220.635 67.541 220.661C67.6384 220.714 67.7376 220.762 67.8232 220.802C67.9976 220.884 68.2119 220.977 68.4512 221.076C68.9354 221.277 69.6102 221.542 70.4619 221.869C72.17 222.524 74.653 223.446 77.8887 224.628C84.3633 226.993 93.8897 230.413 106.345 234.843C113.096 237.244 121.213 240.169 124.381 241.344C126.484 242.123 128.052 242.656 129.188 242.923C128.813 244.335 128.252 246.333 127.535 248.796C126.34 252.905 124.766 258.154 123.062 263.764C122.028 267.166 120.995 270.568 119.962 273.97C119.071 276.904 118.179 279.838 117.288 282.771C117.257 282.785 117.226 282.797 117.197 282.81C117.19 282.814 117.183 282.818 117.176 282.821C116.919 282.756 116.595 282.666 116.205 282.548C114.997 282.181 113.346 281.604 111.557 280.907C94.3121 274.186 82.9325 269.775 62.2324 261.791C49.9073 257.037 37.0643 252.074 33.6914 250.762C15.5389 243.702 10.3782 241.72 8.76953 241.206C8.71375 233.958 8.65832 226.712 8.60254 219.465C8.53066 210.14 8.52776 204.286 8.61914 200.711C8.66436 198.941 8.73183 197.799 8.81445 197.092C8.82601 197.086 8.83778 197.081 8.84961 197.076C9.36913 196.842 10.0864 196.533 10.9561 196.17C12.2582 195.626 13.8758 194.97 15.6299 194.276L17.4229 193.573C30.0679 188.655 44.4751 183.004 60.1016 176.831C67.5282 173.897 85.8978 166.664 100.923 160.758C146.754 142.739 151.366 140.919 157.629 138.378C158.97 137.834 160.222 137.379 161.297 137.068L145.879 188.279ZM8.9082 196.508C8.92176 196.462 8.92295 196.472 8.90527 196.52C8.90661 196.515 8.90731 196.511 8.9082 196.508Z" fill="#1570EF" stroke="#1570EF" stroke-width="4.67533"/>
<path d="M259.071 6.13913C240.773 6.24165 222.474 6.34356 204.176 6.44609C203.826 7.57139 203.477 8.69731 203.127 9.82261C201.957 13.5926 175.738 99.2077 171.637 112.653C170.195 117.38 168.007 124.217 166.773 127.847C166.025 130.047 165.276 132.247 164.529 134.447C163.176 133.916 160.069 134.864 156.75 136.211C150.503 138.746 145.908 140.559 100.068 158.581C85.0423 164.488 66.671 171.722 59.2426 174.656C43.6191 180.828 29.2161 186.478 16.5757 191.394C11.6797 193.298 7.31662 195.121 6.87951 195.445C6.24841 195.913 6.12194 200.846 6.2656 219.482C6.32576 227.298 6.38592 235.114 6.44609 242.93C6.95748 243.089 7.46948 243.248 7.98087 243.406C9.37016 243.836 14.2311 245.701 32.8443 252.941C36.2209 254.254 49.067 259.218 61.3913 263.972C82.0894 271.955 93.4664 276.365 110.708 283.084C114.366 284.51 117.543 285.475 117.768 285.23C117.993 284.984 118.385 284.8 118.639 284.819C118.792 284.832 118.946 284.843 119.099 284.856C109.038 317.447 105.333 329.395 104.374 332.434C103.415 335.473 99.131 349.424 94.8545 363.436C90.578 377.449 86.1339 391.745 84.9785 395.206C84.2786 397.304 83.5781 399.401 82.8783 401.499C82.8783 400.476 82.8783 399.453 82.8783 398.43C83.8071 395.812 84.7986 392.567 85.6814 389.528C86.5642 386.489 87.5201 383.45 87.8061 382.775C88.0922 382.099 88.4956 380.856 88.7031 380.012C89.6037 376.343 91.6161 369.793 92.149 368.794C92.4682 368.194 92.8605 366.015 93.0213 363.95C93.2245 361.334 93.6395 359.956 94.3885 359.402C95.2793 358.744 95.3241 358.469 94.6525 357.799C93.9815 357.13 93.6408 357.236 92.6769 358.415C92.0366 359.199 91.3343 360.857 91.117 362.099C90.8997 363.341 90.0623 365.512 89.2556 366.922C88.4489 368.333 87.7896 369.926 87.7896 370.461C87.7896 370.996 87.5262 371.914 87.2045 372.5C86.8828 373.087 86.0362 375.362 85.3229 377.556C84.6095 379.751 83.7954 382.099 83.5143 382.775C83.2331 383.45 82.4013 386.075 81.6664 388.607C80.9315 391.139 79.6607 395.352 78.8418 397.969C78.3457 399.555 77.8491 401.141 77.353 402.727C75.2117 409.4 74.3829 411.334 74.13 411.33C73.9765 411.327 73.823 411.324 73.6696 411.322C75.6402 404.423 76.7066 400.901 77.3113 399.043C77.916 397.186 78.9996 393.733 79.7191 391.37C80.4386 389.006 81.8414 384.448 82.8365 381.24C83.8317 378.032 85.3757 372.921 86.2677 369.883C87.1597 366.844 88.3838 362.838 88.9879 360.981C90.4791 356.399 91.5252 352.998 96.0737 337.959C101.387 320.391 101.971 318.501 102.52 317.086C102.783 316.411 103.338 314.615 103.753 313.096C104.168 311.576 104.732 309.642 105.006 308.798C105.281 307.954 106.219 304.915 107.09 302.045C107.961 299.175 108.977 295.837 109.347 294.627C110.427 291.095 109.964 290.319 105.9 288.847C101.36 287.201 100.1 286.727 98.533 286.075C97.8577 285.794 93.5757 284.142 89.0174 282.405C81.8377 279.67 79.0683 278.598 71.3674 275.575C70.6074 275.277 69.3648 274.778 68.6048 274.467C67.8448 274.156 62.3889 272.062 56.48 269.815C50.5711 267.567 45.1152 265.474 44.3552 265.163C43.5952 264.851 42.2833 264.32 41.4391 263.983C40.595 263.645 39.2825 263.113 38.523 262.801C37.7636 262.488 33.6885 260.942 29.4678 259.365C25.2472 257.788 21.172 256.247 20.4126 255.942C19.6532 255.637 18.3407 255.112 17.4965 254.774C16.6524 254.436 15.2711 253.884 14.427 253.546C13.5828 253.208 12.2015 252.656 11.3574 252.318C10.5133 251.981 9.20133 251.455 8.4413 251.151C7.68128 250.846 5.47181 250.017 3.53 249.309C2.35313 248.88 1.17687 248.45 0 248.021C0 228.785 0 209.549 0 190.313C2.6165 189.228 4.2053 188.559 5.21826 188.127C6.23122 187.695 12.1708 185.365 18.4174 182.95C24.664 180.535 30.3273 178.34 31.0026 178.072C34.0495 176.863 35.4259 176.304 37.1417 175.579C39.7146 174.492 40.6275 174.133 47.5783 171.478C50.9548 170.188 54.8224 168.681 56.173 168.127C57.5237 167.573 59.8719 166.652 61.3913 166.081C62.9107 165.509 65.1208 164.622 66.3026 164.109C69.6435 162.658 70.584 162.289 75.5113 160.496C78.0437 159.574 81.2207 158.335 82.5713 157.741C83.9219 157.146 98.5637 151.363 115.109 144.888C131.654 138.413 145.743 132.89 146.418 132.616C147.094 132.341 148.613 131.714 149.795 131.223C150.977 130.731 153.601 129.692 155.627 128.911C157.653 128.131 159.636 127.245 160.034 126.941C160.691 126.439 162.398 121.498 165.71 110.504C166.372 108.31 168.016 102.923 169.365 98.533C171.663 91.055 175.607 78.126 176.857 73.9765C177.162 72.9636 177.853 70.7535 178.393 69.0652C178.934 67.377 181.172 60.056 183.368 52.7965C185.564 45.537 187.634 38.7686 187.967 37.7556C188.301 36.7427 188.803 35.0851 189.085 34.0722C189.367 33.0592 190.15 30.4347 190.824 28.24C191.499 26.0453 193.572 19.2769 195.429 13.1991C197.287 7.12139 198.997 1.66555 199.23 1.07435C199.625 0.0712139 201.667 0 229.976 0C240.084 0 250.192 0 260.299 0C260.095 0.40948 259.89 0.818346 259.685 1.22783C258.284 1.22783 256.884 1.22783 255.483 1.22783C252.087 1.22783 251.071 1.45927 250.19 2.43294C247.843 5.0261 249.277 5.52522 259.071 5.52522C259.071 5.72965 259.071 5.9347 259.071 6.13913Z" fill="#1570EF"/>
<path d="M89.6312 457.978C104.042 457.876 118.451 457.774 132.862 457.671C133.244 456.443 133.627 455.216 134.01 453.988C134.641 451.962 136.08 447.265 137.208 443.551C138.335 439.837 144.944 418.219 151.893 395.513C156.105 381.751 160.316 367.989 164.529 354.227C168.049 353.075 172.448 351.413 194.917 342.746C202.346 339.88 210.91 336.584 213.949 335.42C216.987 334.257 220.026 333.059 220.702 332.756C222.303 332.039 233.157 327.825 251.09 320.958C259.025 317.92 266.76 314.924 268.28 314.301C269.799 313.678 274.358 311.885 278.409 310.317C282.461 308.748 290.197 305.722 295.599 303.591C301.001 301.46 307.632 298.865 310.333 297.824C313.034 296.784 320.493 293.893 326.909 291.4C333.324 288.907 340.323 286.207 342.463 285.401C344.602 284.594 346.637 283.41 346.984 282.769C347.408 281.987 347.467 273.709 347.165 257.575C347.014 249.565 346.864 241.556 346.714 233.546C345.255 232.964 343.796 232.381 342.337 231.798C339.929 230.837 336.025 229.277 333.662 228.334C331.298 227.39 326.187 225.381 322.304 223.869C307.67 218.171 289.414 210.9 283.321 208.342C281.531 207.591 267.19 201.957 255.388 197.367C244.546 193.152 220.097 183.527 218.706 182.927C218.246 182.729 217.786 182.53 217.325 182.331C235.048 123.908 232.893 130.971 247.05 84.8726C250.648 73.1573 254.246 61.4414 257.843 49.7261C258.679 49.7261 259.217 48.5646 259.577 47.1452C260.219 44.6165 260.257 44.5864 261.455 45.6706C262.127 46.279 263.001 46.5774 263.396 46.333C264.189 45.8425 263.839 48.1097 262.444 52.4887C261.247 56.2465 260.703 58.5499 260.813 59.3952C260.846 59.6513 260.88 59.9066 260.913 60.1626C258.398 68.9643 257.194 73.0395 256.613 74.8966C256.033 76.7536 254.943 80.345 254.191 82.8774C253.44 85.4098 252.33 89.0012 251.726 90.8583C251.121 92.7154 250.059 96.1686 249.366 98.5322C248.673 100.896 247.095 106.145 245.86 110.197C244.625 114.248 243.365 118.392 243.06 119.405C242.755 120.418 242.066 122.628 241.529 124.317C240.993 126.005 239.188 131.944 237.519 137.516C235.849 143.087 233.977 149.165 233.358 151.022C232.739 152.879 231.88 155.641 231.449 157.161C231.019 158.68 230.174 161.443 229.571 163.3C227.166 170.71 225.306 177.356 225.306 178.537C225.306 179.578 226.906 180.409 234.975 183.559C240.293 185.635 245.473 187.697 246.486 188.14C247.499 188.582 259.102 193.149 272.27 198.289C285.439 203.428 297.042 207.995 298.055 208.437C299.068 208.879 301.83 209.98 304.194 210.883C306.557 211.787 309.044 212.75 309.719 213.024C310.394 213.298 312.881 214.271 315.244 215.188C317.608 216.105 320.163 217.098 320.923 217.396C321.682 217.695 322.926 218.178 323.686 218.47C325.336 219.105 327.923 220.169 329.825 220.993C330.584 221.322 335.626 223.285 341.029 225.354C346.431 227.424 351.334 229.374 351.926 229.689C352.925 230.22 353 232.227 353 258.403C353 280.191 352.827 286.681 352.232 287.141C351.81 287.468 348.702 288.766 345.326 290.025C341.949 291.284 338.634 292.545 337.959 292.825C337.284 293.106 333.002 294.771 328.443 296.525C314.033 302.07 310.342 303.504 308.031 304.454C307.271 304.766 301.124 307.137 294.371 309.723C287.618 312.308 281.402 314.714 280.558 315.069C279.714 315.425 278.401 315.954 277.642 316.247C276.883 316.539 275.639 317.037 274.879 317.352C274.12 317.668 268.664 319.761 262.755 322.004C249.365 327.087 248.873 327.276 245.872 328.524C244.521 329.086 239.272 331.114 234.208 333.03C229.143 334.947 224.377 336.771 223.618 337.083C222.858 337.396 221.477 337.964 220.548 338.347C219.619 338.731 218.238 339.283 217.479 339.575C216.719 339.868 215.475 340.361 214.716 340.672C213.957 340.983 209.881 342.525 205.661 344.097C201.44 345.67 197.296 347.249 196.452 347.605C195.015 348.211 193.565 348.798 190.62 349.967C189.945 350.235 185.113 352.106 179.883 354.124C174.653 356.143 170.175 358.166 169.932 358.62C169.689 359.074 168.627 362.346 167.572 365.891C166.518 369.437 165.16 373.857 164.555 375.714C163.467 379.057 161.6 385.222 158.98 394.131C158.235 396.664 157.133 400.255 156.532 402.112C155.93 403.969 154.854 407.423 154.141 409.786C152.35 415.716 149.477 425.079 146.98 433.115C145.826 436.829 144.569 440.973 144.187 442.323C143.133 446.044 141.554 450.865 139.111 457.825C138.375 459.923 137.639 462.02 136.902 464.117C86.0895 464.082 80.3101 463.921 81.0413 463.33C81.856 462.672 81.8191 462.424 80.7343 461.264C80.0566 460.538 79.7085 459.917 79.962 459.883C80.1155 459.862 80.269 459.841 80.4225 459.82C80.4212 459.973 80.42 460.127 80.4188 460.28C80.4169 460.533 80.8313 460.83 81.3397 460.939C81.8553 461.05 82.2642 460.711 82.2642 459.206C84.7199 458.797 87.1755 458.388 89.6312 457.978Z" fill="#1570EF"/>
<path d="M73.6695 434.036C73.7554 435.702 74.036 435.218 74.3485 434.036C74.6609 432.854 75.1834 431.416 75.5094 430.84C75.8354 430.264 76.2749 428.744 76.4867 427.464C76.6985 426.182 77.4635 423.909 78.1867 422.412C80.5834 417.451 85.1503 418.062 86.3112 423.498C87.1455 427.403 87.1915 428 87.4224 437.72C87.5464 442.953 87.9565 448.014 88.3334 448.965C88.7103 449.917 88.8829 451.713 88.7165 452.956C88.5452 454.239 88.7441 455.715 89.1763 456.37C89.9081 457.479 89.7104 457.511 84.106 457.197C80.4557 456.992 78.6759 457.076 79.3482 457.424C79.7061 457.609 80.0646 457.794 80.4225 457.979C78.3763 457.979 76.3296 457.979 74.2834 457.979C71.5582 457.979 68.8331 457.979 66.1079 457.979C66.3449 457.16 66.5825 456.341 66.8194 455.523C67.0564 454.705 67.2934 453.886 67.5303 453.067C67.7348 452.658 67.9398 452.249 68.1443 451.84C68.143 451.993 68.1412 452.147 68.14 452.3C68.1375 452.553 68.69 452.849 69.3678 452.957C70.2678 453.1 70.5999 452.81 70.5999 451.883C70.5999 451.021 70.2046 450.612 68.1443 450.612C69.986 445.087 71.8277 439.561 73.6695 434.036Z" fill="#1570EF"/>
<path d="M257.844 49.727C260.504 40.5183 263.164 31.3096 265.824 22.1009C266.664 19.5427 267.503 16.9851 268.342 14.427C269.181 11.8688 270.02 9.31122 270.86 6.75304C269.795 6.75304 268.731 6.75304 267.666 6.75304C264.801 6.54861 261.936 6.34356 259.071 6.13913C259.071 5.9347 259.071 5.72965 259.071 5.52522C259.31 5.46321 259.547 5.40059 259.785 5.33859C260.178 5.23606 260.566 4.7523 260.647 4.26424C260.728 3.77618 260.989 2.89337 261.226 2.30217C261.531 1.54522 261.367 1.22783 259.685 1.22783C259.89 0.818346 260.095 0.40948 260.299 0C266.541 0.102523 272.782 0.204433 279.024 0.306957C278.968 0.818346 278.911 1.33035 278.855 1.84174C278.682 3.42563 275.366 14.7044 274.433 16.8826C274.144 17.5579 273.776 18.663 273.614 19.3383C273.371 20.3586 269.406 33.4859 263.973 51.2617C263.354 53.2877 262.413 56.1196 261.881 57.5543C261.558 58.4243 261.235 59.2936 260.913 60.1635C260.88 59.9075 260.846 59.6521 260.813 59.3961C260.703 58.5507 261.247 56.2473 262.444 52.4896C263.839 48.1105 264.19 45.8433 263.396 46.3339C263.001 46.5782 262.127 46.2798 261.455 45.6714C260.257 44.5873 260.219 44.6174 259.577 47.1461C259.217 48.5654 258.679 49.727 257.844 49.727Z" fill="#1570EF"/>
<path d="M80.4226 457.98C83.4922 457.98 86.5617 457.98 89.6313 457.98C87.1756 458.389 84.72 458.798 82.2643 459.208C81.6504 459.412 81.0365 459.617 80.4226 459.821C80.2691 459.842 80.1156 459.863 79.9622 459.884C79.7086 459.918 80.0567 460.54 80.7345 461.265C81.8192 462.426 81.8561 462.674 81.0414 463.332C80.3102 463.922 86.0896 464.084 136.903 464.119C63.6155 464.7 58.2401 464.621 57.9448 463.851C57.7569 463.361 58.1455 461.357 58.8085 459.396C59.4716 457.435 60.5809 453.897 61.274 451.534C63.6959 443.276 67.011 432.499 67.2695 432.042C67.3567 431.888 67.4432 431.735 67.5304 431.581C67.6096 432.553 67.6882 433.526 67.7674 434.498C67.8466 435.469 67.9252 436.442 68.0044 437.414C68.4451 436.953 68.8853 436.493 69.3261 436.032C70.053 435.273 70.9843 434.651 71.3956 434.651C72.0709 434.651 74.4713 427.778 75.3259 423.399C75.5125 422.443 76.0448 421.545 77.353 421.145C76.1252 425.442 74.8974 429.74 73.6695 434.037C71.8278 439.562 69.9861 445.088 68.1443 450.613C68.1443 451.022 68.1443 451.431 68.1443 451.841C67.9399 452.25 67.7348 452.659 67.5304 453.068C67.2235 453.44 66.9165 453.812 66.6095 454.183C65.4081 455.638 65.4437 457.573 66.717 460.006C67.0595 460.661 67.4021 461.315 67.7447 461.97C68.2714 461.517 68.7994 461.064 69.3261 460.611C70.4704 459.627 70.6522 459.22 69.9861 459.138C69.4796 459.075 70.239 458.788 74.2835 457.98C76.3296 457.98 78.3764 457.98 80.4226 457.98ZM67.4592 437.26C67.4985 436.501 67.3923 435.879 67.2235 435.879C66.8484 435.879 66.822 436.499 67.1449 437.721C67.2787 438.227 67.4199 438.02 67.4592 437.26Z" fill="#1570EF"/>
<path d="M82.8781 401.5C81.0364 408.048 79.1946 414.596 77.3529 421.145C76.0446 421.545 75.5124 422.443 75.3257 423.399C74.4712 427.778 72.0708 434.651 71.3955 434.651C70.9841 434.651 70.0528 435.273 69.326 436.032C68.8852 436.493 68.445 436.953 68.0042 437.414C67.925 436.442 67.8464 435.469 67.7672 434.498C67.6881 433.526 67.6095 432.553 67.5303 431.581C69.364 425.2 71.2352 418.979 72.84 413.931C73.1163 413.062 73.3931 412.192 73.6694 411.322C73.8229 411.325 73.9764 411.328 74.1298 411.33C74.3828 411.335 75.2116 409.401 77.3529 402.728C77.8851 402.121 78.4174 401.514 78.9497 400.907C79.8276 399.907 81.0707 398.94 82.8781 398.43C82.8781 399.454 82.8781 400.476 82.8781 401.5Z" fill="#1570EF"/>
<path d="M82.8782 398.429C81.0709 398.939 79.8277 399.906 78.9498 400.906C78.4176 401.513 77.8853 402.12 77.353 402.727C77.8491 401.141 78.3457 399.555 78.8418 397.969C79.6607 395.352 80.9315 391.139 81.6664 388.607C82.4012 386.074 83.2331 383.45 83.5143 382.774C83.7954 382.099 84.6095 379.751 85.3228 377.556C86.0362 375.361 86.8828 373.086 87.2045 372.5C87.5262 371.914 87.7895 370.996 87.7895 370.461C87.7895 369.925 88.4489 368.333 89.2556 366.922C90.0623 365.511 90.8996 363.34 91.117 362.098C91.3343 360.856 92.0366 359.199 92.6769 358.415C93.6408 357.236 93.9815 357.129 94.6525 357.799C95.3241 358.468 95.2793 358.743 94.3885 359.402C93.6395 359.955 93.2245 361.334 93.0213 363.95C92.8605 366.015 92.4682 368.194 92.1489 368.793C91.6161 369.793 89.6037 376.342 88.7031 380.012C88.4956 380.856 88.0922 382.099 87.8061 382.774C87.52 383.45 86.5642 386.489 85.6814 389.527C84.7986 392.566 83.8071 395.812 82.8782 398.429Z" fill="#1570EF"/>
<path d="M265.824 22.101C265.706 19.8737 265.382 20.4091 264.911 22.101C262.954 29.1469 262.536 30.4392 261.981 31.1495C260.75 32.7272 260.299 31.0426 260.299 24.8716C260.299 17.8589 261.293 9.31319 262.242 8.16763C262.577 7.76368 263.934 7.28053 265.258 7.09328C266.061 6.97971 266.864 6.86675 267.666 6.75317C268.731 6.75317 269.795 6.75317 270.86 6.75317C270.02 9.31135 269.181 11.8689 268.342 14.4271C267.503 16.9853 266.664 19.5428 265.824 22.101Z" fill="#1570EF"/>
<path d="M259.685 1.22754C261.367 1.22754 261.531 1.54493 261.226 2.30189C260.989 2.89309 260.728 3.77589 260.647 4.26395C260.566 4.75201 260.178 5.23578 259.785 5.3383C259.547 5.40031 259.31 5.46293 259.071 5.52493C249.277 5.52493 247.844 5.02582 250.191 2.43265C251.071 1.45898 252.087 1.22754 255.483 1.22754C256.884 1.22754 258.284 1.22754 259.685 1.22754Z" fill="#1570EF"/>
<path d="M74.2834 457.979C70.2389 458.788 69.4795 459.074 69.986 459.137C70.6521 459.22 70.4703 459.627 69.326 460.61C68.7993 461.063 68.2713 461.517 67.7446 461.97C67.402 461.315 67.0594 460.66 66.7169 460.005C65.4436 457.572 65.408 455.638 66.6094 454.183C66.9164 453.811 67.2234 453.439 67.5303 453.068C67.2933 453.886 67.0564 454.705 66.8194 455.524C66.5824 456.342 66.3448 457.161 66.1079 457.979C68.833 457.979 71.5582 457.979 74.2834 457.979Z" fill="#1570EF"/>
<path d="M68.1442 451.84C68.1442 451.431 68.1442 451.022 68.1442 450.613C70.2045 450.613 70.5999 451.022 70.5999 451.883C70.5999 452.811 70.2677 453.101 69.3677 452.958C68.69 452.85 68.1374 452.554 68.1399 452.301C68.1411 452.147 68.143 451.994 68.1442 451.84Z" fill="#1570EF"/>
<path d="M80.4226 459.82C81.0365 459.615 81.6505 459.41 82.2644 459.206C82.2644 460.711 81.8555 461.049 81.3398 460.939C80.8315 460.83 80.4171 460.533 80.419 460.28C80.4202 460.127 80.4214 459.973 80.4226 459.82Z" fill="#1570EF"/>
<path d="M67.4592 437.26C67.4199 438.019 67.2787 438.227 67.1448 437.721C66.8219 436.499 66.8483 435.879 67.2234 435.879C67.3923 435.879 67.4985 436.501 67.4592 437.26Z" fill="#1570EF"/>
</g>
</svg>
