<svg width="40" height="40" viewBox="0 0 40 40" fill="none" xmlns="http://www.w3.org/2000/svg">
<path d="M28.2666 10.2834C31.5999 12.6001 33.8999 16.2834 34.3666 20.5334" stroke="#06030E" stroke-width="3" stroke-linecap="round" stroke-linejoin="round"/>
<path d="M5.81665 20.6167C6.24998 16.3834 8.51665 12.7 11.8167 10.3667" stroke="#06030E" stroke-width="3" stroke-linecap="round" stroke-linejoin="round"/>
<path d="M13.6499 34.8999C15.5832 35.8832 17.7832 36.4332 20.0999 36.4332C22.3332 36.4332 24.4332 35.9332 26.3166 35.0166" stroke="#06030E" stroke-width="3" stroke-linecap="round" stroke-linejoin="round"/>
<path d="M15.4666 8.19998C15.4666 10.75 17.5332 12.8333 20.0999 12.8333C22.6666 12.8333 24.7332 10.7667 24.7332 8.19998C24.7332 5.63332 22.6666 3.56665 20.0999 3.56665" stroke="#06030E" stroke-width="3" stroke-linecap="round" stroke-linejoin="round"/>
<path d="M8.05008 33.2C10.609 33.2 12.6834 31.1256 12.6834 28.5667C12.6834 26.0078 10.609 23.9333 8.05008 23.9333C5.49116 23.9333 3.41675 26.0078 3.41675 28.5667C3.41675 31.1256 5.49116 33.2 8.05008 33.2Z" stroke="#06030E" stroke-width="3" stroke-linecap="round" stroke-linejoin="round"/>
<path d="M36.5667 28.5667C36.5667 26.0167 34.5001 23.9333 31.9334 23.9333C29.3667 23.9333 27.3 26 27.3 28.5667C27.3 31.1333 29.3667 33.2 31.9334 33.2" stroke="#06030E" stroke-width="3" stroke-linecap="round" stroke-linejoin="round"/>
</svg>
