<svg width="40" height="40" viewBox="0 0 40 40" fill="none" xmlns="http://www.w3.org/2000/svg">
<path d="M20.25 27.5V31" stroke="#06030E" stroke-width="3" stroke-linecap="round" stroke-linejoin="round"/>
<path d="M11.9167 36.6667H28.5834V35.0001C28.5834 33.1667 27.0834 31.6667 25.2501 31.6667H15.2501C13.4167 31.6667 11.9167 33.1667 11.9167 35.0001V36.6667V36.6667Z" stroke="#06030E" stroke-width="3" stroke-miterlimit="10"/>
<path d="M10.25 36.6667H30.25" stroke="#06030E" stroke-width="3" stroke-linecap="round" stroke-linejoin="round"/>
<path d="M14.1833 25.1166C10.6833 23.0999 8.33325 19.3333 8.33325 14.9999V9.99992C8.33325 6.31659 11.3166 3.33325 14.9999 3.33325H24.9999C28.6833 3.33325 31.6666 6.31659 31.6666 9.99992V14.9999C31.6666 21.3666 26.5833 26.5333 20.2499 26.6666C20.1666 26.6666 19.9999 26.6666 19.9999 26.6666" stroke="#06030E" stroke-width="3" stroke-linecap="round" stroke-linejoin="round"/>
<path d="M9.11657 19.4167C7.86657 19.0167 6.76657 18.2833 5.8999 17.4167C4.3999 15.75 3.3999 13.75 3.3999 11.4167C3.3999 9.08333 5.23324 7.25 7.56657 7.25H8.6499C8.31657 8.01667 8.1499 8.86667 8.1499 9.75V14.75C8.1499 16.4167 8.4999 17.9833 9.11657 19.4167Z" stroke="#06030E" stroke-width="3" stroke-linecap="round" stroke-linejoin="round"/>
<path d="M30.8833 19.4167C32.1333 19.0167 33.2333 18.2833 34.1 17.4167C35.6 15.75 36.6 13.75 36.6 11.4167C36.6 9.08333 34.7666 7.25 32.4333 7.25H31.35C31.6833 8.01667 31.85 8.86667 31.85 9.75V14.75C31.85 16.4167 31.5 17.9833 30.8833 19.4167Z" stroke="#06030E" stroke-width="3" stroke-linecap="round" stroke-linejoin="round"/>
</svg>
