<svg width="40" height="40" viewBox="0 0 40 40" fill="none" xmlns="http://www.w3.org/2000/svg">
<path d="M31.6666 26.6667V10.8333C31.6666 9 30.1666 7.5 28.3333 7.5H20.8333" stroke="#06030E" stroke-width="3" stroke-linecap="round" stroke-linejoin="round"/>
<path d="M25 3.33325L20 7.49992L25 11.6666" stroke="#06030E" stroke-width="3" stroke-linecap="round" stroke-linejoin="round"/>
<path d="M8.33325 15V26.6667" stroke="#06030E" stroke-width="3" stroke-linecap="round" stroke-linejoin="round"/>
<path d="M8.74992 3.33325C5.76659 3.33325 3.33325 5.76659 3.33325 8.74992C3.33325 11.7333 5.76659 14.1666 8.74992 14.1666C11.7333 14.1666 14.1666 11.7333 14.1666 8.74992" stroke="#06030E" stroke-width="3" stroke-linecap="round" stroke-linejoin="round"/>
<path d="M8.33325 36.6667C11.0947 36.6667 13.3333 34.4282 13.3333 31.6667C13.3333 28.9053 11.0947 26.6667 8.33325 26.6667C5.57183 26.6667 3.33325 28.9053 3.33325 31.6667C3.33325 34.4282 5.57183 36.6667 8.33325 36.6667Z" stroke="#06030E" stroke-width="3" stroke-linecap="round" stroke-linejoin="round"/>
<path d="M31.6667 36.6667C34.4282 36.6667 36.6667 34.4282 36.6667 31.6667C36.6667 28.9053 34.4282 26.6667 31.6667 26.6667C28.9053 26.6667 26.6667 28.9053 26.6667 31.6667C26.6667 34.4282 28.9053 36.6667 31.6667 36.6667Z" stroke="#06030E" stroke-width="3" stroke-linecap="round" stroke-linejoin="round"/>
</svg>
