<svg width="40" height="40" viewBox="0 0 40 40" fill="none" xmlns="http://www.w3.org/2000/svg">
<path d="M14.4499 23.3333H6.66659C4.83325 23.3333 3.33325 24.8333 3.33325 26.6666V36.6666H14.4499V23.3333Z" stroke="#06030E" stroke-width="3" stroke-miterlimit="10" stroke-linecap="round" stroke-linejoin="round"/>
<path d="M25.55 20.0001C25.55 18.1667 24.05 16.6667 22.2167 16.6667H17.7667C15.9333 16.6667 14.4333 18.1667 14.4333 20.0001V36.6667H25.55V26.6667" stroke="#06030E" stroke-width="3" stroke-miterlimit="10" stroke-linecap="round" stroke-linejoin="round"/>
<path d="M33.3334 28.3333H25.55V36.6666H36.6667V31.6666C36.6667 29.8333 35.1667 28.3333 33.3334 28.3333Z" stroke="#06030E" stroke-width="3" stroke-miterlimit="10" stroke-linecap="round" stroke-linejoin="round"/>
<path d="M20.8666 3.44995L21.7499 5.21661C21.8666 5.46661 22.1832 5.69994 22.4499 5.73327L24.0499 5.99995C25.0666 6.16661 25.3166 6.91658 24.5832 7.63325L23.3332 8.88325C23.1166 9.09991 22.9999 9.49993 23.0666 9.78326L23.4166 11.3166C23.6999 12.5333 23.0499 13 21.9832 12.3666L20.4832 11.4833C20.2166 11.3166 19.7666 11.3166 19.4999 11.4833L17.9999 12.3666C16.9332 13 16.2832 12.5333 16.5666 11.3166L16.9166 9.78326C16.9832 9.49993 16.8666 9.08325 16.6499 8.88325L15.4166 7.64993C14.6832 6.9166 14.9166 6.18325 15.9499 6.01658L17.5499 5.74996C17.8166 5.69996 18.1332 5.46663 18.2499 5.23329L19.1332 3.46658C19.6166 2.49991 20.3832 2.49995 20.8666 3.44995Z" stroke="#06030E" stroke-width="3" stroke-linecap="round" stroke-linejoin="round"/>
</svg>
