<svg width="129" height="40" viewBox="0 0 129 40" fill="none" xmlns="http://www.w3.org/2000/svg">
<path d="M126.193 28.0125C126.547 27.3419 127.399 27.1867 127.991 27.6848C128.499 28.1118 128.478 29.0089 127.951 29.4434C127.403 29.8948 126.515 29.7081 126.191 29.0736C126.052 28.8005 126.053 28.2779 126.193 28.0125Z" fill="white"/>
<path d="M110.155 22.0718C110.23 21.3894 110.478 20.5395 110.776 19.9343C111.19 19.0971 111.503 18.6658 112.167 18.0226C112.935 17.2773 113.783 16.7491 114.721 16.4314C115.101 16.3025 115.215 16.2692 115.805 16.1144C115.977 16.0691 116.409 16.045 117.047 16.045C117.685 16.045 118.117 16.0691 118.289 16.1144C118.435 16.1525 118.649 16.2086 118.765 16.2389C119.073 16.3191 119.882 16.6473 120.219 16.8285C121.937 17.7524 123.259 19.5365 123.693 21.5167C123.805 22.0296 123.819 23.6099 123.716 24.1071C123.283 26.1854 122.016 27.9144 120.219 28.8804C119.28 29.3851 118.401 29.6316 117.319 29.6933C115.414 29.802 113.454 29.0694 112.132 27.7549C111.179 26.8071 110.57 25.706 110.275 24.3979C110.169 23.9277 110.099 22.5759 110.155 22.0718ZM120.086 22.3361C119.934 21.6266 119.696 21.1658 119.244 20.7001C118.931 20.3786 118.381 19.9835 118.246 19.9835C118.209 19.9835 118.156 19.9639 118.128 19.9399C118.053 19.8748 117.702 19.7827 117.281 19.7177C116.535 19.6025 115.654 19.859 115.019 20.3762C114.555 20.7545 114.366 20.9814 114.137 21.4374C113.663 22.3788 113.657 23.3242 114.119 24.2645C114.387 24.8101 115.064 25.4911 115.606 25.7599C116.118 26.0141 116.476 26.0813 117.152 26.0502C117.804 26.0203 118.159 25.9058 118.697 25.5512C119.435 25.0654 119.912 24.3309 120.108 23.3776C120.18 23.0311 120.174 22.7469 120.086 22.3361Z" fill="white"/>
<path d="M66.4589 21.9396C66.6228 21.107 66.7429 20.7325 67.0518 20.0893C67.2769 19.6207 67.6313 19.0351 67.8391 18.7884C68.4814 18.026 68.7488 17.7699 69.3877 17.3058C69.87 16.9555 70.8299 16.4603 71.2645 16.3377C71.3953 16.3008 71.5619 16.2518 71.6346 16.2288C72.0266 16.1045 72.5336 16.0472 73.247 16.0465C74.3835 16.0454 75.1117 16.2187 76.1478 16.7367C77.8195 17.5725 79.2288 19.1806 79.8041 20.9087C80.0358 21.6051 80.1826 22.5492 80.1291 23.0004C80.0621 23.5659 79.7424 23.9964 79.1945 24.2588C79.0976 24.3052 79.0006 24.3515 78.9037 24.398C77.5334 24.4068 76.1632 24.4156 74.7929 24.4244C73.4226 24.4332 72.0523 24.442 70.682 24.4508C70.713 24.5075 70.744 24.5641 70.775 24.6208C70.9344 24.9122 71.3635 25.3674 71.6833 25.5847C72.1902 25.9289 72.5596 26.031 73.2999 26.0315C73.5113 26.0316 73.7228 26.0317 73.9343 26.0319C74.1672 25.9402 74.4002 25.8485 74.6331 25.7568C75.4281 25.4439 75.6032 25.4254 76.1475 25.5972C77.1687 25.9195 77.721 27.1025 77.2909 28.0465C76.9848 28.7186 76.0905 29.2752 74.8859 29.5435C74.0423 29.7314 72.6427 29.7776 71.9518 29.6404C70.6277 29.3774 69.247 28.5937 68.2874 27.5602C67.6948 26.922 67.2141 26.1708 66.9064 25.4024C66.6612 24.79 66.5912 24.5428 66.4799 23.8957C66.3958 23.4066 66.3841 22.3195 66.4589 21.9396ZM75.5436 20.8352C74.9473 19.9862 73.9149 19.5606 72.8321 19.7175C72.5951 19.7519 72.3535 19.7989 72.2954 19.822C71.846 20.0007 71.6224 20.1293 71.3884 20.3439C71.0893 20.6181 70.6695 21.1878 70.7137 21.2594C70.7508 21.3195 75.7433 21.3193 75.7804 21.2591C75.7961 21.2338 75.6895 21.043 75.5436 20.8352Z" fill="white"/>
<path d="M91.2431 13.058C91.3485 12.5532 91.7784 12.0387 92.293 11.8017C92.5559 11.6806 92.6667 11.6618 93.125 11.6608C93.6024 11.6597 93.6811 11.6739 93.9368 11.8074C94.4544 12.0776 94.8212 12.559 94.9952 13.1963C95.031 13.3274 95.0546 13.8883 95.0546 14.6074C95.0546 15.0052 95.0546 15.4031 95.0546 15.8009C95.949 15.8063 96.8433 15.8118 97.7376 15.8172C98.6319 15.8227 99.5262 15.8281 100.421 15.8335C100.509 15.877 100.597 15.9205 100.685 15.964C101.307 16.271 101.77 17.0072 101.768 17.6876C101.767 18.3932 101.284 19.1247 100.606 19.4483C100.509 19.4945 100.412 19.5408 100.315 19.587C99.4382 19.5921 98.5614 19.5971 97.6847 19.6021C96.808 19.6071 95.9313 19.6122 95.0546 19.6172C95.0546 20.2181 95.0546 20.819 95.0546 21.4199C95.0546 23.442 95.0583 23.4709 95.4153 24.2166C95.5648 24.5288 95.6766 24.6883 95.9885 25.0342C96.1642 25.229 96.5568 25.5198 96.8256 25.6542C97.3019 25.8922 97.7855 25.9766 98.4799 25.9426C99.3667 25.8992 99.7905 25.7342 100.386 25.2006C100.512 25.0875 100.767 24.926 100.953 24.8418C101.242 24.7108 101.356 24.6887 101.747 24.6887C102.145 24.6887 102.245 24.709 102.535 24.8472C103.344 25.2331 103.823 26.1595 103.612 26.9294C103.468 27.4555 103.304 27.6793 102.698 28.1741C101.701 28.9883 100.632 29.4755 99.4425 29.6576C98.9998 29.7254 97.7706 29.7254 97.3279 29.6576C96.8747 29.5883 96.2152 29.4329 95.9798 29.3401C95.9216 29.3172 95.7313 29.2437 95.5568 29.177C93.5319 28.4017 91.9246 26.5574 91.4149 24.4243C91.3837 24.2935 91.3295 24.0675 91.2946 23.9221C91.2229 23.6231 91.1744 13.3871 91.2431 13.058Z" fill="white"/>
<path d="M39.4917 22.4683C39.7382 20.9963 39.8464 20.6069 40.2299 19.8105C40.5366 19.1736 40.6758 18.9529 41.1052 18.4226C41.8738 17.4735 42.957 16.7134 44.1175 16.3086C45.2629 15.9092 47.0347 15.8484 48.1618 16.1701C48.2636 16.1991 48.4063 16.2384 48.479 16.2573C48.5517 16.2762 48.6588 16.3107 48.7169 16.334C48.7751 16.3573 48.9892 16.4428 49.1927 16.5243C50.6238 17.0966 51.9545 18.3854 52.6281 19.8514C52.735 20.084 52.8421 20.3121 52.8661 20.3582C52.8902 20.4043 52.9776 20.7016 53.0603 21.019C53.1104 21.2113 53.1605 21.4036 53.2106 21.596C53.2106 22.715 53.2106 23.834 53.2106 24.953C53.2106 28.2577 53.2089 28.3138 53.099 28.5513C52.9456 28.8828 52.5017 29.3113 52.1383 29.4787C51.7855 29.6411 51.1865 29.6734 50.8316 29.5491C50.2177 29.3341 49.7347 28.8106 49.6394 28.2572C49.6227 28.1603 49.6059 28.0634 49.5892 27.9664C49.5892 26.2571 49.5892 24.5477 49.5892 22.8383C49.5892 21.7021 49.0508 20.7135 48.109 20.1206C47.4894 19.7305 47.1482 19.6395 46.3115 19.641C45.7392 19.6421 45.6264 19.662 45.2013 19.8372C44.6431 20.0673 44.127 20.4597 43.8388 20.873C43.2165 21.7654 43.1947 21.9205 43.1934 25.469C43.1924 28.2477 43.1908 28.288 43.0775 28.529C42.9129 28.8793 42.479 29.3011 42.1064 29.4733C41.6688 29.6754 41.0825 29.6799 40.6454 29.4844C40.3181 29.338 39.9242 29.005 39.7556 28.7322C39.4999 28.3185 39.4929 28.226 39.4923 25.257C39.4921 24.3274 39.4919 23.3978 39.4917 22.4683Z" fill="white"/>
<path d="M53.8884 17.2609C54.0992 16.6896 54.5524 16.2607 55.1417 16.0746C55.6594 15.9112 55.9977 15.9403 56.5148 16.1928C56.8045 16.3342 57.2544 16.771 57.3701 17.023C57.5287 17.3685 57.7158 17.7884 57.8883 18.1861C58.2229 18.9571 58.265 19.0512 58.6515 19.891C58.7217 20.0437 58.8431 20.3232 58.9212 20.5122C58.9994 20.7012 59.1124 20.9629 59.1724 21.0937C59.2324 21.2246 59.3947 21.5904 59.5331 21.9066C59.6715 22.2229 59.8097 22.5066 59.8403 22.5372C59.8791 22.576 59.9214 22.5302 59.9808 22.3851C60.0275 22.2709 60.1258 22.0467 60.199 21.8867C60.2723 21.7268 60.3528 21.5484 60.3779 21.4902C60.4029 21.4321 60.5689 21.0514 60.7468 20.6444C61.1569 19.706 61.2038 19.5982 61.2935 19.3888C61.334 19.2943 61.4317 19.0742 61.5107 18.8998C61.5896 18.7253 61.7004 18.4656 61.757 18.3225C62.1354 17.3656 62.4783 16.724 62.7296 16.5027C63.5185 15.8083 64.496 15.8 65.2915 16.4809C65.6428 16.7816 65.9239 17.3751 65.9239 17.816C65.9239 18.067 65.7426 18.6316 65.474 19.217C65.434 19.3042 65.3507 19.5064 65.289 19.6663C65.2272 19.8263 65.1404 20.0404 65.0961 20.1421C65.0518 20.2439 64.9966 20.3747 64.9735 20.4329C64.9503 20.4911 64.8953 20.6219 64.8512 20.7237C64.8072 20.8254 64.612 21.3012 64.4175 21.781C64.2231 22.2608 64.0283 22.7366 63.9847 22.8383C63.9411 22.9401 63.884 23.0769 63.8579 23.1423C63.8318 23.2077 63.7873 23.3148 63.7591 23.3802C63.731 23.4456 63.6339 23.6895 63.5434 23.9221C63.453 24.1547 63.3428 24.4283 63.2986 24.5301C63.2543 24.6318 63.1992 24.7627 63.176 24.8208C63.1529 24.879 63.0958 25.0158 63.0492 25.1248C63.0027 25.2338 62.9315 25.4004 62.8911 25.4949C62.8507 25.5894 62.6936 25.976 62.542 26.354C62.3904 26.732 62.2303 27.1245 62.1862 27.2263C62.1422 27.328 62.0733 27.4887 62.0331 27.5831C61.9929 27.6776 61.922 27.8442 61.8754 27.9532C61.8288 28.0622 61.766 28.2109 61.7358 28.2836C61.5704 28.6819 61.4799 28.8169 61.1671 29.1321C60.6979 29.6049 60.5188 29.6846 59.9247 29.6846C58.8302 29.6846 58.3964 29.3311 57.9136 28.0457C57.8372 27.8422 57.7172 27.55 57.6469 27.3965C57.5767 27.243 57.5193 27.1069 57.5193 27.0941C57.5193 27.0813 57.4623 26.9452 57.3927 26.7917C57.3231 26.6382 57.1306 26.1795 56.965 25.7724C56.7994 25.3654 56.6278 24.949 56.5839 24.8473C56.54 24.7455 56.4851 24.6147 56.4619 24.5565C56.4388 24.4984 56.3836 24.3675 56.3392 24.2657C56.2949 24.164 56.1472 23.8071 56.0109 23.4727C55.8747 23.1384 55.7208 22.7696 55.6689 22.6533C55.6171 22.537 55.4391 22.1088 55.2733 21.7017C54.9745 20.9676 54.9113 20.8163 54.7542 20.4593C54.7094 20.3576 54.6214 20.1438 54.5588 19.9844C54.4961 19.825 54.3905 19.5752 54.3241 19.4293C54.2576 19.2834 54.1849 19.1046 54.1626 19.0319C54.1403 18.9592 54.0809 18.8046 54.0307 18.6883C53.9804 18.572 53.9122 18.4103 53.879 18.329C53.8039 18.145 53.8098 17.4738 53.8884 17.2609Z" fill="white"/>
<path d="M81.4756 21.9661C81.5287 21.5502 81.7221 20.7765 81.7921 20.6999C81.8173 20.6723 81.8379 20.6182 81.8379 20.5798C81.8379 20.5414 81.9345 20.3028 82.0526 20.0495C82.6978 18.666 83.9234 17.4397 85.3271 16.7733C85.9849 16.4611 86.3797 16.3373 87.3797 16.1299C87.7452 16.054 88.611 16.0547 88.8006 16.1309C89.1276 16.2623 89.2211 16.3124 89.4122 16.4584C89.8119 16.7639 90.1387 17.4313 90.1374 17.9397C90.1362 18.4047 89.8962 18.9148 89.5255 19.2403C89.1874 19.5371 88.8579 19.6548 88.1819 19.72C87.3501 19.8003 86.9098 19.9605 86.3356 20.3918C85.8802 20.7339 85.4629 21.3355 85.2618 21.9396C85.1513 22.2715 85.1464 22.3896 85.1169 25.376C85.0834 28.768 85.1021 28.5786 84.753 29.0588C84.0243 30.0613 82.3326 29.9661 81.7003 28.8871C81.4219 28.4121 81.4157 28.3302 81.4223 25.2174C81.4256 23.6327 81.4496 22.1696 81.4756 21.9661Z" fill="white"/>
<path d="M104.833 17.6839C104.923 17.0911 105.321 16.5653 105.884 16.2981C106.141 16.1757 106.253 16.1557 106.685 16.1536C107.145 16.1514 107.211 16.1645 107.469 16.3069C107.95 16.5729 108.287 17.065 108.423 17.7012C108.505 18.0846 108.507 27.8676 108.425 28.3115C108.309 28.937 107.969 29.3781 107.399 29.6397C107.131 29.7626 107.012 29.7852 106.632 29.7846C105.94 29.7835 105.45 29.5161 105.11 28.9538C104.796 28.4366 104.796 28.4407 104.795 22.9441C104.794 20.1964 104.811 17.8293 104.833 17.6839Z" fill="white"/>
<path d="M34.1629 17.3931C34.1939 17.3204 34.2504 17.1895 34.2883 17.1023C34.3896 16.8694 34.8234 16.4696 35.1565 16.3021C35.4084 16.1755 35.5115 16.1556 35.9268 16.1533C36.3326 16.1511 36.4441 16.1702 36.6536 16.2779C36.9539 16.4324 37.2957 16.7654 37.439 17.0431C37.6998 17.549 37.6929 17.3877 37.6936 23.0287C37.6941 28.3876 37.693 28.4219 37.5014 28.8519C37.3722 29.1419 36.9378 29.5309 36.5992 29.6598C36.1354 29.8363 35.5233 29.8264 35.1341 29.636C34.6703 29.4091 34.4077 29.0977 34.1587 28.4794C34.077 28.2762 34.0809 17.5848 34.1629 17.3931Z" fill="white"/>
<path d="M34.1367 13.1108C34.3321 12.5781 34.6852 12.1673 35.1412 11.9419C35.3562 11.8357 35.4745 11.8168 35.9231 11.8162C36.4907 11.8156 36.6863 11.8795 37.0482 12.184C37.2603 12.3624 37.5536 12.8181 37.6317 13.0905C37.7294 13.4309 37.7086 13.9141 37.5817 14.2534C37.4486 14.6092 37.0005 15.0975 36.6368 15.283C36.3012 15.4543 35.5677 15.4542 35.1831 15.2829C34.4522 14.9573 34.0949 14.3961 34.1034 13.5874C34.1057 13.3689 34.1207 13.1544 34.1367 13.1108Z" fill="white"/>
<path d="M104.889 13.0245C105.033 12.5572 105.566 12.0351 106.063 11.8746C106.412 11.762 107.016 11.7684 107.31 11.8879C107.613 12.0106 108.025 12.3711 108.195 12.6626C108.63 13.4047 108.512 14.2825 107.894 14.9008C107.489 15.3053 107.234 15.4106 106.658 15.4106C106.214 15.4106 106.144 15.3956 105.824 15.2352C105.43 15.0369 105.139 14.7453 104.978 14.3861C104.853 14.1098 104.802 13.3098 104.889 13.0245Z" fill="white"/>
<path d="M22.8913 1.90316C22.6622 2.69616 22.4331 3.48916 22.204 4.28216C21.8942 5.29102 21.5844 6.29992 21.2746 7.30878C20.0554 11.2785 20.241 10.6703 18.7148 15.7014C18.5852 16.1199 18.4556 16.5384 18.326 16.957C17.7152 18.9294 17.6023 19.2992 17.4989 19.6664C17.4444 19.8382 17.39 20.01 17.3356 20.1818C17.2457 20.4653 17.0931 20.959 16.9964 21.2788C16.8997 21.5986 16.5926 22.6157 15.8071 25.2174C15.7265 25.4685 15.6458 25.7196 15.5651 25.9707C15.432 26.3851 15.2914 26.8311 15.2527 26.962C15.1909 27.1711 15.0727 27.5597 14.6979 28.7859C14.6445 28.9603 14.5036 29.4183 14.1683 30.504C13.8055 31.6892 13.4429 32.8742 13.0802 34.0593C12.4817 36.0147 11.9127 37.8763 11.8155 38.1962C11.7184 38.516 11.5945 38.9204 11.5402 39.0949C11.5072 39.2006 11.4742 39.3064 11.4413 39.4121C10.2004 39.4209 8.95947 39.4297 7.71853 39.4385C7.45419 39.4385 7.18986 39.4385 6.92553 39.4385C6.89471 39.4226 6.86383 39.4066 6.83301 39.3907C6.77512 39.3608 6.92838 39.3535 7.24273 39.3712C7.72535 39.3982 7.74237 39.3955 7.67935 39.3C7.64214 39.2436 7.62501 39.1165 7.63976 39.006C7.65408 38.8989 7.63923 38.7443 7.60677 38.6623C7.57431 38.5804 7.53899 38.1446 7.52831 37.6939C7.50844 36.8569 7.50447 36.8055 7.43263 36.4693C7.33265 36.0011 6.93938 35.9485 6.73299 36.3757C6.67071 36.5046 6.60484 36.7004 6.5866 36.8107C6.56836 36.921 6.53051 37.0519 6.50244 37.1015C6.47436 37.1511 6.42937 37.2749 6.40246 37.3767C6.37556 37.4785 6.3514 37.5201 6.34399 37.3767C6.44973 37.0066 6.55546 36.6366 6.66119 36.2665C6.81979 35.7026 6.97839 35.1387 7.13699 34.5748C7.19726 34.3941 7.25758 34.2135 7.31785 34.0329C7.41735 33.7348 7.80005 32.5037 8.16832 31.297C8.53659 30.0904 8.90549 28.889 8.98807 28.6273C9.07065 28.3656 9.38975 27.3367 10.2561 24.5301C10.4341 23.9442 10.612 23.3582 10.79 22.7723C11.0836 21.8055 11.3334 20.9609 11.3663 20.7766C11.4472 20.5255 11.5282 20.2743 11.609 20.0232C11.7425 19.6089 11.8948 19.1271 11.9475 18.9527C12.0001 18.7782 12.1883 18.1537 12.688 16.4944C13.1814 14.8555 13.6749 13.2166 14.1683 11.5778C14.2327 11.3883 14.2971 11.1989 14.3615 11.0094C14.4678 10.6968 14.6562 10.1081 14.7804 9.701C15.1336 8.54316 17.3913 1.17048 17.4922 0.845826C17.5222 0.748921 17.5524 0.651964 17.5824 0.555059C19.1582 0.54623 20.734 0.537454 22.3097 0.528625C22.5565 0.54623 22.8031 0.563888 23.0499 0.581492C22.9808 0.591273 22.9116 0.601 22.8425 0.61078C22.7285 0.626905 22.6116 0.668511 22.5828 0.703297C22.5011 0.801946 22.4155 1.53785 22.4155 2.14175C22.4155 2.67316 22.4543 2.81823 22.5603 2.68236C22.6081 2.6212 22.6441 2.50991 22.8127 1.90316C22.8532 1.75746 22.8811 1.71136 22.8913 1.90316Z" fill="#FD853A"/>
<path d="M21.9192 17.1838C22.9366 17.5795 24.1674 18.0634 24.3196 18.1272C24.8469 18.3486 26.4217 18.9754 27.6819 19.4661C28.016 19.5962 28.4557 19.7689 28.6584 19.8499C28.862 19.9311 29.1981 20.0649 29.4055 20.1477C29.4942 20.1831 29.5744 20.2151 29.6575 20.2483C29.6631 20.5488 29.6694 20.8492 29.675 21.1497C29.6815 21.4945 29.6881 21.8399 29.6946 22.1848C29.7076 22.879 29.7128 23.4024 29.7102 23.76C29.7089 23.9392 29.7054 24.0748 29.7004 24.1682C29.6986 24.2021 29.6956 24.2288 29.6936 24.2493C29.6802 24.2587 29.6636 24.2718 29.6418 24.2844C29.5817 24.3194 29.5024 24.3579 29.4202 24.3889C29.2348 24.4588 28.6307 24.6919 28.0784 24.9065C27.526 25.1212 26.8839 25.3697 26.6516 25.4592C26.4182 25.5492 25.8464 25.7728 25.3811 25.9563C24.9162 26.1397 24.251 26.4005 23.9026 26.5354C23.5539 26.6704 23.1597 26.8256 23.0266 26.8801C22.8985 26.9327 22.2346 27.1893 21.55 27.4514C20.0109 28.0408 19.0678 28.4061 18.9231 28.4709C18.8713 28.4942 18.6159 28.5954 18.3518 28.6965C18.0898 28.7968 17.3526 29.0807 16.7131 29.3274C15.4157 29.8279 14.8189 30.0545 14.4778 30.1799C14.7289 29.3664 14.8432 28.9978 14.8899 28.845C15.2645 27.6194 15.3834 27.229 15.4456 27.0188C15.4835 26.8904 15.6239 26.4472 15.7571 26.0325C15.8193 25.8389 15.8804 25.645 15.9426 25.4514C15.9474 25.4504 15.9526 25.4505 15.9573 25.4495C16.003 25.4394 16.0635 25.4242 16.1321 25.4045C16.2706 25.3648 16.4572 25.3059 16.6614 25.2385C17.0696 25.1039 17.5578 24.9306 17.8909 24.7971C17.988 24.7582 18.5779 24.5453 19.2053 24.3225C19.83 24.1007 20.4736 23.8704 20.635 23.8108C20.7923 23.7527 21.266 23.5875 21.6877 23.4436C22.1051 23.3012 22.5368 23.1451 22.6399 23.0979C22.6791 23.08 22.7207 23.0634 22.7551 23.052C22.7725 23.0462 22.7861 23.0425 22.7952 23.0403C22.8083 23.0371 22.8018 23.0393 22.7854 23.0393C22.8183 23.0393 22.8505 23.033 22.8694 23.0286C22.8921 23.0233 22.9166 23.0158 22.9407 23.0081C22.9892 22.9925 23.0448 22.9715 23.0969 22.9485C23.2577 22.8776 24.2042 22.5391 24.4143 22.4778C24.46 22.4645 24.5063 22.4454 24.5452 22.4221C24.5639 22.4109 24.5882 22.3941 24.6106 22.3713C24.6215 22.3603 24.655 22.3256 24.6702 22.2708L24.678 22.2102L24.6692 22.1555C24.655 22.107 24.6266 22.0761 24.6165 22.0657C24.5979 22.0465 24.5786 22.0333 24.5667 22.0256C24.5414 22.0095 24.5107 21.9947 24.4797 21.9807C24.4155 21.9517 24.3167 21.9121 24.1741 21.8586C23.8869 21.7511 23.403 21.5784 22.6145 21.301C22.1488 21.1372 21.6515 20.9589 21.509 20.9045C21.3606 20.8479 20.8941 20.6804 20.4729 20.5325C20.0505 20.3841 19.6269 20.232 19.5286 20.1936C19.4284 20.1544 18.9807 19.9894 17.7454 19.5413C17.8445 19.2004 18.0038 18.6768 18.5178 17.0168C18.5826 16.8077 18.6474 16.5981 18.7122 16.3889C18.7552 16.25 18.7981 16.1108 18.8411 15.9719C19.2695 16.144 21.0766 16.8562 21.9192 17.1838Z" fill="white" stroke="white" stroke-width="0.402613"/>
<path d="M12.5613 16.2133C12.5581 16.2134 12.5546 16.2132 12.5515 16.2133C12.4883 16.2159 12.4151 16.2306 12.3386 16.2504C12.1831 16.2908 11.9724 16.3649 11.7136 16.4692C11.5877 16.52 11.2354 16.6485 10.9304 16.7543C10.4557 16.9191 8.48294 17.6272 7.6228 17.9418C7.47845 17.9946 7.11061 18.1267 6.80542 18.2348C6.50015 18.343 6.1475 18.4683 6.02222 18.5131C5.95188 18.5383 5.88443 18.5687 5.83374 18.601C5.81177 18.615 5.77531 18.6408 5.74683 18.6782C5.73284 18.6965 5.70597 18.7369 5.70093 18.7944C5.69478 18.8657 5.72506 18.93 5.77319 18.9721C5.79262 18.9891 5.81202 19.0001 5.81616 19.0024C5.82451 19.0069 5.83323 19.0107 5.84058 19.0141C5.85551 19.0211 5.87382 19.029 5.89429 19.0375C5.93599 19.0549 5.99477 19.0778 6.06812 19.1059C6.2152 19.1623 6.42929 19.2415 6.70776 19.3432C7.26531 19.5469 8.08558 19.8417 9.15796 20.2231C9.73908 20.4298 10.4377 20.6815 10.7107 20.7827C10.8909 20.8495 11.0261 20.8944 11.1238 20.9174C11.0915 21.0392 11.0441 21.2124 10.9822 21.4252C10.8793 21.779 10.7441 22.2314 10.5974 22.7143C10.4317 23.2599 10.2651 23.8054 10.0994 24.351C10.0969 24.3521 10.0938 24.3529 10.0916 24.3539C10.0694 24.3483 10.0406 24.3418 10.0066 24.3315C9.90257 24.2999 9.76017 24.2499 9.6062 24.1899C8.12148 23.6112 7.14141 23.2318 5.35913 22.5444C4.29776 22.135 3.19158 21.7071 2.90112 21.5942C1.33596 20.9854 0.892536 20.8149 0.754639 20.7709C0.749836 20.1469 0.74577 19.5229 0.740967 18.8989C0.734777 18.0959 0.734074 17.5915 0.741943 17.2836C0.745841 17.1313 0.751426 17.0329 0.758545 16.9721C0.759644 16.9716 0.761324 16.9716 0.762451 16.9711C0.807107 16.951 0.868517 16.9242 0.943115 16.893C1.09262 16.8305 1.29114 16.7509 1.50073 16.6694C2.58953 16.2459 3.83007 15.7595 5.17554 15.228C5.81506 14.9753 7.39727 14.3519 8.69116 13.8432C12.6372 12.2918 13.0348 12.1353 13.574 11.9164C13.6887 11.8699 13.7963 11.8319 13.8884 11.8051C13.4461 13.2744 13.0036 14.744 12.5613 16.2133Z" fill="white" stroke="white" stroke-width="0.402613"/>
<path d="M22.3097 0.528697C20.734 0.537526 19.1582 0.546302 17.5825 0.555131C17.5524 0.652035 17.5222 0.748993 17.4922 0.845898C17.3913 1.17055 15.1336 8.54324 14.7804 9.70107C14.6562 10.1081 14.4678 10.6969 14.3615 11.0095C14.2971 11.1989 14.2327 11.3884 14.1683 11.5778C14.0518 11.5321 13.7842 11.6137 13.4984 11.7297C12.9604 11.9481 12.5648 12.1042 8.61727 13.6561C7.32336 14.1648 5.74132 14.7877 5.10164 15.0404C3.75623 15.5719 2.51593 16.0584 1.4274 16.4818C1.00579 16.6458 0.630065 16.8028 0.592424 16.8306C0.538077 16.8709 0.527187 17.2957 0.539558 18.9006C0.544739 19.5737 0.549919 20.2467 0.5551 20.9198C0.599138 20.9334 0.643229 20.9471 0.687267 20.9608C0.806904 20.9978 1.2255 21.1584 2.82837 21.7819C3.11914 21.8949 4.22537 22.3224 5.28667 22.7318C7.06907 23.4192 8.0488 23.799 9.53356 24.3777C9.84854 24.5004 10.1221 24.5835 10.1415 24.5624C10.1609 24.5412 10.1947 24.5254 10.2165 24.5271C10.2297 24.5281 10.2429 24.5291 10.2561 24.5302C9.38976 27.3368 9.07066 28.3657 8.98808 28.6273C8.9055 28.889 8.5366 30.0904 8.16833 31.2971C7.80006 32.5038 7.41736 33.7349 7.31786 34.033C7.25759 34.2136 7.19727 34.3942 7.137 34.5749C7.137 34.4867 7.137 34.3986 7.137 34.3105C7.21699 34.0851 7.30237 33.8056 7.37839 33.5439C7.45442 33.2823 7.53673 33.0206 7.56137 32.9624C7.586 32.9043 7.62074 32.7972 7.6386 32.7245C7.71616 32.4085 7.88946 31.8445 7.93534 31.7584C7.96284 31.7068 7.99662 31.5192 8.01047 31.3414C8.02797 31.1161 8.0637 30.9974 8.1282 30.9497C8.20491 30.893 8.20877 30.8693 8.15094 30.8116C8.09315 30.754 8.06381 30.7632 7.98081 30.8647C7.92567 30.9322 7.86519 31.075 7.84648 31.1819C7.82776 31.2889 7.75565 31.4758 7.68618 31.5973C7.61672 31.7188 7.55994 31.8559 7.55994 31.902C7.55994 31.9481 7.53726 32.0271 7.50956 32.0776C7.48185 32.1281 7.40895 32.3241 7.34752 32.5131C7.28609 32.702 7.21599 32.9043 7.19177 32.9624C7.16756 33.0206 7.09593 33.2466 7.03265 33.4646C6.96936 33.6827 6.85993 34.0455 6.78941 34.2709C6.74669 34.4074 6.70392 34.544 6.6612 34.6806C6.47681 35.2552 6.40544 35.4218 6.38365 35.4214C6.37044 35.4212 6.35722 35.4209 6.344 35.4207C6.51371 34.8267 6.60554 34.5233 6.65761 34.3634C6.70968 34.2035 6.80299 33.9061 6.86495 33.7025C6.92691 33.499 7.04771 33.1065 7.13341 32.8302C7.21911 32.554 7.35207 32.1139 7.42888 31.8522C7.5057 31.5905 7.61111 31.2456 7.66313 31.0856C7.79155 30.6911 7.88163 30.3982 8.27332 29.1031C8.73088 27.5903 8.78116 27.4275 8.82847 27.3057C8.85105 27.2475 8.89884 27.0929 8.93458 26.962C8.97032 26.8312 9.0189 26.6647 9.04253 26.592C9.06616 26.5193 9.14694 26.2576 9.22196 26.0104C9.29698 25.7633 9.38447 25.4758 9.41635 25.3716C9.50935 25.0675 9.46948 25.0007 9.11951 24.8739C8.7285 24.7321 8.62007 24.6914 8.48511 24.6352C8.42695 24.611 8.05821 24.4687 7.66567 24.3192C7.0474 24.0836 6.80891 23.9913 6.14575 23.731C6.08031 23.7053 5.9733 23.6624 5.90785 23.6356C5.8424 23.6088 5.37258 23.4285 4.86374 23.2349C4.35489 23.0414 3.88507 22.8611 3.81962 22.8343C3.75417 22.8075 3.64119 22.7618 3.5685 22.7327C3.49581 22.7036 3.38278 22.6579 3.31739 22.6309C3.25199 22.604 2.90106 22.4709 2.5376 22.335C2.17414 22.1992 1.82321 22.0666 1.75782 22.0403C1.69242 22.014 1.57939 21.9688 1.5067 21.9397C1.43401 21.9106 1.31506 21.8631 1.24237 21.834C1.16968 21.8049 1.05073 21.7573 0.978034 21.7282C0.905342 21.6992 0.792366 21.6539 0.726917 21.6277C0.661468 21.6015 0.471201 21.5301 0.303984 21.4691C0.202638 21.4321 0.101345 21.3951 0 21.3582C0 19.7017 0 18.0452 0 16.3887C0.225318 16.2952 0.362137 16.2377 0.449367 16.2004C0.536597 16.1632 1.04808 15.9627 1.586 15.7547C2.12392 15.5467 2.61161 15.3577 2.66977 15.3346C2.93215 15.2305 3.05067 15.1823 3.19844 15.1199C3.42 15.0263 3.49861 14.9954 4.09717 14.7668C4.38794 14.6557 4.721 14.5258 4.8373 14.4782C4.95361 14.4305 5.15583 14.3512 5.28667 14.302C5.41752 14.2527 5.60784 14.1763 5.7096 14.1321C5.9973 14.0072 6.0783 13.9754 6.5026 13.821C6.72068 13.7417 6.99426 13.6349 7.11057 13.5838C7.22688 13.5326 8.48775 13.0345 9.91251 12.4769C11.3373 11.9194 12.5506 11.4438 12.6087 11.4201C12.6669 11.3965 12.7977 11.3425 12.8995 11.3002C13.0012 11.2578 13.2272 11.1683 13.4017 11.1011C13.5762 11.0339 13.747 10.9576 13.7812 10.9314C13.8378 10.8882 13.9848 10.4627 14.27 9.51604C14.327 9.32704 14.4686 8.86313 14.5848 8.48514C14.7826 7.84117 15.1223 6.72779 15.2299 6.37047C15.2562 6.28324 15.3157 6.09292 15.3622 5.94753C15.4087 5.80215 15.6015 5.17172 15.7906 4.54657C15.9798 3.92142 16.158 3.33856 16.1867 3.25133C16.2154 3.1641 16.2587 3.02136 16.2829 2.93413C16.3072 2.8469 16.3746 2.6209 16.4327 2.4319C16.4908 2.2429 16.6693 1.66004 16.8293 1.13666C16.9892 0.613284 17.1365 0.143458 17.1566 0.0925472C17.1906 0.00616306 17.3664 3.05176e-05 19.8042 3.05176e-05C20.6746 3.05176e-05 21.5451 3.05176e-05 22.4155 3.05176e-05C22.3979 0.0352926 22.3802 0.0705018 22.3626 0.105764C22.242 0.105764 22.1214 0.105764 22.0007 0.105764C21.7083 0.105764 21.6208 0.125695 21.545 0.209541C21.3429 0.43285 21.4663 0.475831 22.3097 0.475831C22.3097 0.493435 22.3097 0.511093 22.3097 0.528697Z" fill="white"/>
<path d="M7.71845 39.4385C8.95939 39.4297 10.2003 39.4209 11.4412 39.4121C11.4742 39.3063 11.5071 39.2006 11.5401 39.0949C11.5944 38.9204 11.7183 38.516 11.8155 38.1961C11.9126 37.8763 12.4816 36.0147 13.0801 34.0593C13.4428 32.8742 13.8055 31.6892 14.1682 30.504C14.4714 30.4048 14.8502 30.2617 16.7851 29.5153C17.4248 29.2685 18.1623 28.9847 18.424 28.8845C18.6856 28.7843 18.9473 28.6811 19.0055 28.6551C19.1434 28.5933 20.0781 28.2305 21.6224 27.6391C22.3057 27.3775 22.9718 27.1195 23.1027 27.0659C23.2335 27.0122 23.626 26.8578 23.975 26.7228C24.3239 26.5877 24.99 26.327 25.4552 26.1435C25.9205 25.96 26.4914 25.7366 26.724 25.647C26.9566 25.5574 27.599 25.3084 28.1514 25.0937C28.7039 24.879 29.3066 24.6466 29.4909 24.5771C29.6751 24.5076 29.8504 24.4057 29.8802 24.3505C29.9167 24.2831 29.9218 23.5703 29.8958 22.1809C29.8828 21.4912 29.8699 20.8015 29.857 20.1117C29.7313 20.0616 29.6057 20.0113 29.48 19.9612C29.2727 19.8784 28.9365 19.7441 28.733 19.6628C28.5294 19.5816 28.0893 19.4085 27.7549 19.2783C26.4947 18.7877 24.9226 18.1615 24.3979 17.9413C24.2437 17.8766 23.0088 17.3914 21.9925 16.9962C21.0588 16.6331 18.9534 15.8043 18.8337 15.7526C18.794 15.7356 18.7544 15.7184 18.7147 15.7014C20.2409 10.6703 20.0554 11.2785 21.2745 7.30878C21.5843 6.29992 21.8941 5.29101 22.2039 4.28216C22.2759 4.28216 22.3222 4.18214 22.3532 4.05991C22.4085 3.84215 22.4118 3.83956 22.5149 3.93292C22.5728 3.98531 22.6481 4.01101 22.6821 3.98997C22.7504 3.94773 22.7202 4.14296 22.6001 4.52006C22.497 4.84366 22.4502 5.04201 22.4596 5.11481C22.4625 5.13686 22.4654 5.15885 22.4683 5.18089C22.2517 5.93884 22.148 6.28977 22.098 6.44969C22.048 6.60962 21.9541 6.91889 21.8894 7.13696C21.8247 7.35504 21.7292 7.66431 21.6771 7.82423C21.625 7.98415 21.5336 8.28153 21.4739 8.48506C21.4142 8.6886 21.2783 9.14061 21.172 9.48953C21.0656 9.83845 20.9571 10.1953 20.9308 10.2825C20.9046 10.3698 20.8453 10.5601 20.799 10.7055C20.7528 10.8508 20.5974 11.3623 20.4537 11.8421C20.3099 12.3219 20.1487 12.8452 20.0954 13.0052C20.0421 13.1651 19.9681 13.403 19.931 13.5338C19.894 13.6647 19.8212 13.9026 19.7693 14.0625C19.5622 14.7006 19.402 15.2729 19.402 15.3747C19.402 15.4643 19.5398 15.5358 20.2346 15.8071C20.6926 15.9859 21.1387 16.1634 21.2259 16.2015C21.3131 16.2397 22.3123 16.6329 23.4463 17.0755C24.5803 17.5181 25.5795 17.9114 25.6667 17.9494C25.7539 17.9875 25.9918 18.0823 26.1954 18.1601C26.3989 18.2379 26.613 18.3209 26.6712 18.3444C26.7293 18.368 26.9434 18.4519 27.147 18.5308C27.3505 18.6097 27.5706 18.6953 27.636 18.721C27.7014 18.7466 27.8085 18.7883 27.8739 18.8134C28.016 18.8681 28.2388 18.9597 28.4025 19.0306C28.4679 19.059 28.9021 19.2281 29.3674 19.4063C29.8326 19.5845 30.2548 19.7524 30.3057 19.7795C30.3918 19.8253 30.3983 19.9981 30.3983 22.2522C30.3983 24.1285 30.3834 24.6873 30.3322 24.727C30.2958 24.7552 30.0282 24.8669 29.7374 24.9753C29.4467 25.0838 29.1612 25.1923 29.103 25.2165C29.0449 25.2406 28.6761 25.384 28.2836 25.535C27.0427 26.0126 26.7248 26.1361 26.5258 26.2179C26.4604 26.2448 25.931 26.449 25.3495 26.6716C24.768 26.8942 24.2327 27.1014 24.16 27.132C24.0873 27.1626 23.9743 27.2082 23.9089 27.2334C23.8435 27.2586 23.7364 27.3014 23.671 27.3286C23.6056 27.3558 23.1357 27.5361 22.6269 27.7292C21.4738 28.1669 21.4314 28.1832 21.173 28.2907C21.0567 28.339 20.6047 28.5137 20.1686 28.6787C19.7324 28.8438 19.322 29.0008 19.2566 29.0277C19.1912 29.0547 19.0723 29.1036 18.9923 29.1366C18.9123 29.1696 18.7933 29.2172 18.7279 29.2423C18.6625 29.2675 18.5554 29.31 18.49 29.3368C18.4246 29.3636 18.0737 29.4963 17.7103 29.6317C17.3468 29.7672 16.9899 29.9031 16.9173 29.9338C16.7935 29.986 16.6687 30.0365 16.415 30.1372C16.3569 30.1603 15.9408 30.3214 15.4904 30.4952C15.0401 30.669 14.6545 30.8432 14.6335 30.8824C14.6126 30.9214 14.5211 31.2032 14.4303 31.5085C14.3395 31.8138 14.2225 32.1945 14.1705 32.3544C14.0768 32.6422 13.916 33.1732 13.6904 33.9404C13.6263 34.1585 13.5314 34.4677 13.4795 34.6276C13.4277 34.7876 13.3351 35.0849 13.2736 35.2885C13.1195 35.7992 12.872 36.6054 12.657 37.2974C12.5576 37.6173 12.4494 37.9741 12.4165 38.0904C12.3257 38.4108 12.1898 38.826 11.9794 39.4253C11.916 39.6059 11.8526 39.7865 11.7892 39.9672C7.41346 39.9642 6.91577 39.9503 6.97874 39.8994C7.04889 39.8427 7.04572 39.8214 6.95231 39.7215C6.89394 39.659 6.86397 39.6055 6.8858 39.6025C6.89902 39.6007 6.91223 39.5989 6.92545 39.5971C6.92534 39.6103 6.92524 39.6235 6.92513 39.6368C6.92497 39.6585 6.96066 39.6841 7.00443 39.6935C7.04884 39.703 7.08405 39.6738 7.08405 39.5442C7.29552 39.509 7.50698 39.4738 7.71845 39.4385Z" fill="white"/>
<path d="M6.34403 37.3768C6.35143 37.5202 6.37559 37.4785 6.4025 37.3768C6.42941 37.275 6.4744 37.1511 6.50247 37.1015C6.53054 37.0519 6.5684 36.921 6.58664 36.8108C6.60487 36.7004 6.67075 36.5047 6.73302 36.3757C6.93942 35.9485 7.33269 36.0011 7.43266 36.4693C7.50451 36.8056 7.50847 36.8569 7.52835 37.694C7.53903 38.1446 7.57434 38.5804 7.6068 38.6624C7.63926 38.7443 7.65412 38.8989 7.63979 39.006C7.62504 39.1165 7.64217 39.2436 7.67939 39.3C7.74241 39.3955 7.72538 39.3983 7.24276 39.3712C6.92842 39.3535 6.77516 39.3608 6.83305 39.3908C6.86387 39.4067 6.89474 39.4226 6.92556 39.4386C6.74936 39.4386 6.5731 39.4386 6.3969 39.4386C6.16222 39.4386 5.92755 39.4386 5.69287 39.4386C5.71328 39.3681 5.73374 39.2976 5.75414 39.2271C5.77455 39.1566 5.79496 39.0861 5.81536 39.0156C5.83297 38.9804 5.85063 38.9452 5.86823 38.9099C5.86812 38.9231 5.86797 38.9363 5.86786 38.9495C5.86765 38.9713 5.91523 38.9968 5.97359 39.0061C6.0511 39.0184 6.0797 38.9935 6.0797 38.9136C6.0797 38.8394 6.04565 38.8042 5.86823 38.8042C6.02683 38.3284 6.18543 37.8526 6.34403 37.3768Z" fill="#FD853A"/>
<path d="M22.2041 4.2822C22.4332 3.4892 22.6623 2.6962 22.8914 1.9032C22.9636 1.68291 23.0359 1.46266 23.1082 1.24237C23.1804 1.02207 23.2527 0.801829 23.325 0.581534C23.2333 0.581534 23.1416 0.581534 23.05 0.581534C22.8032 0.563929 22.5566 0.546272 22.3098 0.528667C22.3098 0.511062 22.3098 0.493405 22.3098 0.4758C22.3303 0.470461 22.3508 0.465068 22.3713 0.459729C22.4051 0.4509 22.4385 0.409241 22.4455 0.367212C22.4525 0.325183 22.4749 0.249161 22.4954 0.19825C22.5216 0.133065 22.5075 0.105733 22.3627 0.105733C22.3803 0.0704713 22.398 0.0352621 22.4156 0C22.9531 0.00882874 23.4905 0.0176046 24.028 0.0264334C24.0232 0.0704713 24.0183 0.114562 24.0135 0.1586C23.9986 0.294996 23.713 1.26626 23.6327 1.45383C23.6078 1.51199 23.5761 1.60715 23.5622 1.6653C23.5412 1.75317 23.1998 2.88361 22.732 4.41437C22.6786 4.58883 22.5976 4.8327 22.5518 4.95625C22.524 5.03117 22.4962 5.10602 22.4684 5.18094C22.4656 5.15889 22.4627 5.1369 22.4598 5.11485C22.4504 5.04206 22.4972 4.8437 22.6003 4.5201C22.7204 4.143 22.7506 3.94777 22.6822 3.99001C22.6482 4.01105 22.573 3.98536 22.5151 3.93297C22.412 3.8396 22.4087 3.84219 22.3534 4.05995C22.3224 4.18218 22.2761 4.2822 22.2041 4.2822Z" fill="white"/>
<path d="M6.92558 39.4385C7.18991 39.4385 7.45424 39.4385 7.71858 39.4385C7.50711 39.4738 7.29564 39.509 7.08418 39.5442C7.03131 39.5619 6.97844 39.5795 6.92558 39.5971C6.91236 39.5989 6.89914 39.6007 6.88593 39.6025C6.86409 39.6055 6.89407 39.659 6.95243 39.7215C7.04585 39.8214 7.04902 39.8427 6.97886 39.8994C6.9159 39.9503 7.41359 39.9642 11.7893 39.9672C5.47824 40.0172 5.01534 40.0104 4.98991 39.9441C4.97374 39.9019 5.0072 39.7293 5.0643 39.5605C5.12139 39.3916 5.21692 39.0869 5.27661 38.8834C5.48517 38.1724 5.77065 37.2442 5.79291 37.2049C5.80041 37.1917 5.80787 37.1785 5.81537 37.1652C5.82219 37.2489 5.82896 37.3327 5.83578 37.4164C5.8426 37.5 5.84937 37.5838 5.85619 37.6675C5.89415 37.6278 5.93205 37.5882 5.97001 37.5485C6.0326 37.4831 6.1128 37.4296 6.14822 37.4296C6.20638 37.4296 6.41309 36.8377 6.48668 36.4606C6.50275 36.3783 6.54858 36.301 6.66124 36.2665C6.55551 36.6366 6.44978 37.0066 6.34404 37.3767C6.18544 37.8525 6.02684 38.3283 5.86824 38.8041C5.86824 38.8394 5.86824 38.8746 5.86824 38.9098C5.85064 38.9451 5.83298 38.9803 5.81537 39.0156C5.78894 39.0476 5.76251 39.0796 5.73607 39.1116C5.63261 39.2369 5.63568 39.4035 5.74533 39.613C5.77483 39.6694 5.80433 39.7257 5.83383 39.7821C5.87918 39.7431 5.92465 39.7041 5.97001 39.6651C6.06855 39.5804 6.0842 39.5454 6.02684 39.5382C5.98323 39.5328 6.04862 39.5081 6.39691 39.4385C6.57311 39.4385 6.74937 39.4385 6.92558 39.4385ZM5.80924 37.6543C5.81263 37.5889 5.80348 37.5353 5.78894 37.5353C5.75664 37.5353 5.75437 37.5888 5.78217 37.6939C5.7937 37.7375 5.80586 37.7197 5.80924 37.6543Z" fill="white"/>
<path d="M7.1371 34.5748C6.9785 35.1387 6.8199 35.7026 6.6613 36.2665C6.54864 36.301 6.5028 36.3783 6.48673 36.4606C6.41314 36.8377 6.20643 37.4296 6.14828 37.4296C6.11286 37.4296 6.03266 37.4831 5.97006 37.5485C5.93211 37.5882 5.8942 37.6278 5.85624 37.6675C5.84942 37.5838 5.84266 37.5001 5.83584 37.4164C5.82902 37.3327 5.82225 37.2489 5.81543 37.1653C5.97334 36.6158 6.13448 36.08 6.27267 35.6453C6.29646 35.5704 6.32031 35.4956 6.3441 35.4207C6.35731 35.4209 6.37053 35.4211 6.38375 35.4213C6.40553 35.4217 6.4769 35.2552 6.6613 34.6805C6.70713 34.6283 6.75297 34.576 6.7988 34.5238C6.8744 34.4376 6.98146 34.3543 7.1371 34.3105C7.1371 34.3986 7.1371 34.4867 7.1371 34.5748Z" fill="white"/>
<path d="M7.13693 34.3105C6.98129 34.3544 6.87424 34.4377 6.79864 34.5239C6.7528 34.5761 6.70697 34.6284 6.66113 34.6806C6.70385 34.5441 6.74662 34.4075 6.78933 34.2709C6.85986 34.0455 6.96929 33.6828 7.03257 33.4647C7.09586 33.2466 7.16749 33.0206 7.1917 32.9624C7.21592 32.9043 7.28602 32.7021 7.34745 32.5131C7.40888 32.3241 7.48178 32.1282 7.50948 32.0777C7.53719 32.0272 7.55987 31.9481 7.55987 31.902C7.55987 31.8559 7.61665 31.7188 7.68611 31.5973C7.75558 31.4758 7.82769 31.2889 7.8464 31.182C7.86512 31.075 7.9256 30.9323 7.98074 30.8648C8.06374 30.7632 8.09308 30.754 8.15086 30.8117C8.2087 30.8694 8.20484 30.893 8.12813 30.9497C8.06363 30.9974 8.0279 31.1161 8.0104 31.3414C7.99655 31.5192 7.96276 31.7069 7.93527 31.7585C7.88938 31.8445 7.71609 32.4086 7.63853 32.7245C7.62066 32.7972 7.58593 32.9043 7.56129 32.9624C7.53666 33.0206 7.45434 33.2823 7.37832 33.544C7.3023 33.8057 7.21692 34.0852 7.13693 34.3105Z" fill="white"/>
<path d="M22.8913 1.90318C22.8812 1.71138 22.8532 1.75748 22.8127 1.90318C22.6442 2.50993 22.6081 2.62122 22.5604 2.68238C22.4544 2.81825 22.4155 2.67318 22.4155 2.14177C22.4155 1.53787 22.5011 0.801967 22.5829 0.703317C22.6117 0.668531 22.7286 0.626925 22.8426 0.610801C22.9117 0.60102 22.9808 0.591293 23.0499 0.581512C23.1416 0.581512 23.2333 0.581512 23.3249 0.581512C23.2527 0.801808 23.1804 1.02205 23.1081 1.24235C23.0359 1.46264 22.9636 1.68288 22.8913 1.90318Z" fill="#FD853A"/>
<path d="M22.3626 0.105743C22.5074 0.105743 22.5215 0.133075 22.4953 0.19826C22.4748 0.249171 22.4524 0.325193 22.4454 0.367222C22.4384 0.409251 22.405 0.45091 22.3712 0.459739C22.3507 0.465078 22.3302 0.470471 22.3097 0.47581C21.4663 0.47581 21.3429 0.43283 21.545 0.209521C21.6208 0.125674 21.7083 0.105743 22.0007 0.105743C22.1214 0.105743 22.242 0.105743 22.3626 0.105743Z" fill="white"/>
<path d="M6.39683 39.4385C6.04855 39.5082 5.98315 39.5328 6.02677 39.5382C6.08413 39.5454 6.06848 39.5804 5.96994 39.6651C5.92458 39.7041 5.87911 39.7431 5.83375 39.7822C5.80425 39.7258 5.77475 39.6694 5.74525 39.613C5.63561 39.4035 5.63254 39.2369 5.736 39.1116C5.76243 39.0796 5.78887 39.0476 5.8153 39.0156C5.79489 39.0861 5.77449 39.1566 5.75408 39.2271C5.73367 39.2975 5.71321 39.3681 5.69281 39.4385C5.92748 39.4385 6.16216 39.4385 6.39683 39.4385Z" fill="white"/>
<path d="M5.86829 38.9099C5.86829 38.8746 5.86829 38.8394 5.86829 38.8042C6.04571 38.8042 6.07976 38.8394 6.07976 38.9136C6.07976 38.9935 6.05116 39.0184 5.97365 39.0061C5.91529 38.9968 5.86771 38.9713 5.86792 38.9496C5.86803 38.9363 5.86819 38.9231 5.86829 38.9099Z" fill="#FD853A"/>
<path d="M6.92561 39.5972C6.97848 39.5796 7.03134 39.5619 7.08421 39.5443C7.08421 39.6739 7.049 39.7031 7.00459 39.6936C6.96082 39.6842 6.92513 39.6586 6.92529 39.6369C6.9254 39.6236 6.9255 39.6104 6.92561 39.5972Z" fill="white"/>
<path d="M5.80929 37.6543C5.80591 37.7197 5.79375 37.7376 5.78222 37.694C5.75442 37.5888 5.75669 37.5354 5.78899 37.5354C5.80353 37.5354 5.81268 37.5889 5.80929 37.6543Z" fill="white"/>
<path d="M126.276 10.4782C126.375 10.4835 126.474 10.4887 126.573 10.494C126.651 10.635 126.73 10.776 126.809 10.917C126.939 11.1496 127.058 11.3827 127.075 11.4349C127.133 11.6193 127.261 11.493 127.531 10.9831C127.623 10.8114 127.714 10.6395 127.805 10.4677C127.897 10.4677 127.99 10.4677 128.083 10.4677C128.175 10.4676 128.268 10.4676 128.36 10.4676C128.36 10.8563 128.36 11.2449 128.36 11.6336C128.36 12.0222 128.36 12.4109 128.36 12.7995C128.276 12.7941 128.193 12.7888 128.109 12.7834C128.025 12.778 127.942 12.7727 127.858 12.7673C127.849 12.5574 127.84 12.3475 127.831 12.1376C127.803 11.4696 127.798 11.4642 127.584 11.8686C127.323 12.3609 127.263 12.4508 127.19 12.4651C127.115 12.4797 126.983 12.2791 126.755 11.8025C126.696 11.6789 126.63 11.5778 126.607 11.5778C126.584 11.5778 126.559 11.8454 126.551 12.1725C126.546 12.3708 126.541 12.569 126.536 12.7673C126.448 12.7673 126.36 12.7673 126.272 12.7673C126.184 12.7673 126.096 12.7673 126.008 12.7673C126.003 12.3831 125.998 11.999 125.993 11.6148C125.988 11.2306 125.984 10.8464 125.979 10.4622C126.078 10.4675 126.177 10.4729 126.276 10.4782Z" fill="white"/>
<path d="M124.659 10.4675C124.996 10.4675 125.333 10.4675 125.669 10.4675C125.664 10.56 125.659 10.6526 125.653 10.7451C125.648 10.8376 125.643 10.9301 125.637 11.0226C125.528 11.0279 125.418 11.0331 125.308 11.0383C125.199 11.0436 125.089 11.0488 124.979 11.054C124.974 11.3396 124.969 11.6251 124.965 11.9106C124.96 12.1962 124.955 12.4817 124.95 12.7672C124.858 12.7726 124.765 12.7779 124.673 12.7832C124.58 12.7885 124.488 12.7939 124.395 12.7992C124.395 12.5076 124.395 12.2158 124.395 11.9241C124.395 11.2641 124.379 11.0468 124.329 11.0401C124.293 11.0352 124.132 11.0293 123.972 11.0269C123.875 11.0255 123.778 11.0241 123.681 11.0226C123.676 10.9301 123.671 10.8376 123.665 10.7451C123.66 10.6526 123.655 10.56 123.649 10.4675C123.986 10.4675 124.323 10.4675 124.659 10.4675Z" fill="white"/>
</svg>
